<?xml version="1.0" encoding="utf-8"?>
<!-- Generator: Adobe Illustrator 16.0.0, SVG Export Plug-In . SVG Version: 6.00 Build 0)  -->
<!DOCTYPE svg PUBLIC "-//W3C//DTD SVG 1.1//EN" "http://www.w3.org/Graphics/SVG/1.1/DTD/svg11.dtd">
<svg version="1.1" id="Layer_1" xmlns="http://www.w3.org/2000/svg" xmlns:xlink="http://www.w3.org/1999/xlink" x="0px" y="0px"
	 width="3456px" height="1464px" viewBox="0 0 3456 1464" enable-background="new 0 0 3456 1464" xml:space="preserve">
<g>
	<path fill="#D2D4D6" d="M1962.669,1030.026c0,9.541-7.735,17.276-17.276,17.276h-434.785c-9.542,0-17.276-7.735-17.276-17.276
		V851.506c0-9.541,7.734-17.277,17.276-17.277h434.785c9.541,0,17.276,7.736,17.276,17.277V1030.026z"/>
	<path fill="#237EE2" d="M1962.669,923.49c0,9.54-7.735,17.275-17.276,17.275h-434.785c-9.542,0-17.276-7.735-17.276-17.275V744.968
		c0-9.542,7.734-17.276,17.276-17.276h434.785c9.541,0,17.276,7.734,17.276,17.276V923.49z"/>
	<path fill="#D2D4D6" d="M1962.669,816.953c0,9.541-7.735,17.275-17.276,17.275h-434.785c-9.542,0-17.276-7.734-17.276-17.275
		V638.432c0-9.541,7.734-17.276,17.276-17.276h434.785c9.541,0,17.276,7.735,17.276,17.276V816.953z"/>
	<path fill="#237EE2" d="M1962.669,710.416c0,9.541-7.735,17.276-17.276,17.276h-434.785c-9.542,0-17.276-7.736-17.276-17.276
		V531.895c0-9.542,7.734-17.276,17.276-17.276h434.785c9.541,0,17.276,7.734,17.276,17.276V710.416z"/>
	<path fill="#D2D4D6" d="M1962.669,603.879c0,9.541-7.735,17.276-17.276,17.276h-434.785c-9.542,0-17.276-7.735-17.276-17.276
		V425.358c0-9.541,7.734-17.276,17.276-17.276h434.785c9.541,0,17.276,7.735,17.276,17.276V603.879z"/>
	<path fill="#237EE2" d="M1962.669,497.342c0,9.541-7.735,17.276-17.276,17.276h-434.785c-9.542,0-17.276-7.736-17.276-17.276
		V318.821c0-9.542,7.734-17.276,17.276-17.276h434.785c9.541,0,17.276,7.734,17.276,17.276V497.342z"/>
	<path fill="#D2D4D6" d="M1962.669,390.805c0,9.541-7.735,17.276-17.276,17.276h-434.785c-9.542,0-17.276-7.735-17.276-17.276
		V212.284c0-9.541,7.734-17.276,17.276-17.276h434.785c9.541,0,17.276,7.735,17.276,17.276V390.805z"/>
	<path fill="#237EE2" d="M1962.669,292.907c0,4.77-7.735,8.638-17.276,8.638h-434.785c-9.542,0-17.276-3.868-17.276-8.638v-89.261
		c0-4.772,7.734-8.638,17.276-8.638h434.785c9.541,0,17.276,3.866,17.276,8.638V292.907z"/>
	<path fill="#D2D4D6" d="M2318.342,1036.331c0,6.06-4.913,10.972-10.972,10.972h-276.142c-6.059,0-10.972-4.912-10.972-10.972
		V922.949c0-6.059,4.913-10.975,10.972-10.975h276.142c6.059,0,10.972,4.916,10.972,10.975V1036.331z"/>
	<path fill="#237EE2" d="M2318.342,968.668c0,6.06-4.913,10.973-10.972,10.973h-276.142c-6.059,0-10.972-4.913-10.972-10.973
		V855.287c0-6.063,4.913-10.972,10.972-10.972h276.142c6.059,0,10.972,4.909,10.972,10.972V968.668z"/>
	<path fill="#D2D4D6" d="M2318.342,901.003c0,6.06-4.913,10.972-10.972,10.972h-276.142c-6.059,0-10.972-4.912-10.972-10.972
		V787.621c0-6.06,4.913-10.973,10.972-10.973h276.142c6.059,0,10.972,4.913,10.972,10.973V901.003z"/>
	<path fill="#237EE2" d="M2318.342,833.344c0,6.057-4.913,10.972-10.972,10.972h-276.142c-6.059,0-10.972-4.915-10.972-10.972
		V719.958c0-6.063,4.913-10.972,10.972-10.972h276.142c6.059,0,10.972,4.909,10.972,10.972V833.344z"/>
	<path fill="#D2D4D6" d="M2318.342,765.675c0,6.06-4.913,10.973-10.972,10.973h-276.142c-6.059,0-10.972-4.914-10.972-10.973
		V652.293c0-6.059,4.913-10.972,10.972-10.972h276.142c6.059,0,10.972,4.914,10.972,10.972V765.675z"/>
	<path fill="#237EE2" d="M2318.342,698.014c0,6.058-4.913,10.972-10.972,10.972h-276.142c-6.059,0-10.972-4.914-10.972-10.972
		V584.632c0-6.063,4.913-10.972,10.972-10.972h276.142c6.059,0,10.972,4.91,10.972,10.972V698.014z"/>
	<path fill="#D2D4D6" d="M2318.342,630.349c0,6.059-4.913,10.972-10.972,10.972h-276.142c-6.059,0-10.972-4.914-10.972-10.972
		V516.966c0-6.06,4.913-10.972,10.972-10.972h276.142c6.059,0,10.972,4.912,10.972,10.972V630.349z"/>
	<path fill="#237EE2" d="M2318.342,568.172c0,3.03-4.913,5.487-10.972,5.487h-276.142c-6.059,0-10.972-2.458-10.972-5.487V511.48
		c0-3.03,4.913-5.486,10.972-5.486h276.142c6.059,0,10.972,2.456,10.972,5.486V568.172z"/>
	<path fill="#D2D4D6" d="M2565.256,1040.335c0,3.847-3.121,6.968-6.97,6.968h-175.387c-3.849,0-6.97-3.121-6.97-6.968v-72.013
		c0-3.85,3.121-6.971,6.97-6.971h175.387c3.849,0,6.97,3.121,6.97,6.971V1040.335z"/>
	<path fill="#237EE2" d="M2565.256,997.361c0,3.846-3.121,6.968-6.97,6.968h-175.387c-3.849,0-6.97-3.122-6.97-6.968v-72.016
		c0-3.85,3.121-6.968,6.97-6.968h175.387c3.849,0,6.97,3.118,6.97,6.968V997.361z"/>
	<path fill="#D2D4D6" d="M2565.256,954.384c0,3.847-3.121,6.968-6.97,6.968h-175.387c-3.849,0-6.97-3.121-6.97-6.968v-72.015
		c0-3.848,3.121-6.969,6.97-6.969h175.387c3.849,0,6.97,3.121,6.97,6.969V954.384z"/>
	<path fill="#237EE2" d="M2565.256,911.41c0,3.846-3.121,6.968-6.97,6.968h-175.387c-3.849,0-6.97-3.122-6.97-6.968v-72.016
		c0-3.85,3.121-6.968,6.97-6.968h175.387c3.849,0,6.97,3.118,6.97,6.968V911.41z"/>
	<path fill="#D2D4D6" d="M2565.256,868.43c0,3.85-3.121,6.971-6.97,6.971h-175.387c-3.849,0-6.97-3.121-6.97-6.971v-72.012
		c0-3.849,3.121-6.97,6.97-6.97h175.387c3.849,0,6.97,3.121,6.97,6.97V868.43z"/>
	<path fill="#237EE2" d="M2565.256,825.456c0,3.85-3.121,6.971-6.97,6.971h-175.387c-3.849,0-6.97-3.121-6.97-6.971v-72.013
		c0-3.851,3.121-6.969,6.97-6.969h175.387c3.849,0,6.97,3.119,6.97,6.969V825.456z"/>
	<path fill="#D2D4D6" d="M2565.256,782.48c0,3.847-3.121,6.968-6.97,6.968h-175.387c-3.849,0-6.97-3.121-6.97-6.968v-72.014
		c0-3.85,3.121-6.97,6.97-6.97h175.387c3.849,0,6.97,3.12,6.97,6.97V782.48z"/>
	<path fill="#237EE2" d="M2565.256,742.989c0,1.925-3.121,3.485-6.97,3.485h-175.387c-3.849,0-6.97-1.561-6.97-3.485v-36.007
		c0-1.923,3.121-3.484,6.97-3.484h175.387c3.849,0,6.97,1.561,6.97,3.484V742.989z"/>
	<path fill="#D2D4D6" d="M1137.658,1036.331c0,6.06,4.914,10.972,10.972,10.972h276.142c6.059,0,10.972-4.912,10.972-10.972V922.949
		c0-6.059-4.913-10.975-10.972-10.975H1148.63c-6.058,0-10.972,4.916-10.972,10.975V1036.331z"/>
	<path fill="#237EE2" d="M1137.658,968.668c0,6.06,4.914,10.973,10.972,10.973h276.142c6.059,0,10.972-4.913,10.972-10.973V855.287
		c0-6.063-4.913-10.972-10.972-10.972H1148.63c-6.058,0-10.972,4.909-10.972,10.972V968.668z"/>
	<path fill="#D2D4D6" d="M1137.658,901.003c0,6.06,4.914,10.972,10.972,10.972h276.142c6.059,0,10.972-4.912,10.972-10.972V787.621
		c0-6.06-4.913-10.973-10.972-10.973H1148.63c-6.058,0-10.972,4.913-10.972,10.973V901.003z"/>
	<path fill="#237EE2" d="M1137.658,833.344c0,6.057,4.914,10.972,10.972,10.972h276.142c6.059,0,10.972-4.915,10.972-10.972V719.958
		c0-6.063-4.913-10.972-10.972-10.972H1148.63c-6.058,0-10.972,4.909-10.972,10.972V833.344z"/>
	<path fill="#D2D4D6" d="M1137.658,765.675c0,6.06,4.914,10.973,10.972,10.973h276.142c6.059,0,10.972-4.914,10.972-10.973V652.293
		c0-6.059-4.913-10.972-10.972-10.972H1148.63c-6.058,0-10.972,4.914-10.972,10.972V765.675z"/>
	<path fill="#237EE2" d="M1137.658,698.014c0,6.058,4.914,10.972,10.972,10.972h276.142c6.059,0,10.972-4.914,10.972-10.972V584.632
		c0-6.063-4.913-10.972-10.972-10.972H1148.63c-6.058,0-10.972,4.91-10.972,10.972V698.014z"/>
	<path fill="#D2D4D6" d="M1137.658,630.349c0,6.059,4.914,10.972,10.972,10.972h276.142c6.059,0,10.972-4.914,10.972-10.972V516.966
		c0-6.06-4.913-10.972-10.972-10.972H1148.63c-6.058,0-10.972,4.912-10.972,10.972V630.349z"/>
	<path fill="#237EE2" d="M1137.658,568.172c0,3.03,4.914,5.487,10.972,5.487h276.142c6.059,0,10.972-2.458,10.972-5.487V511.48
		c0-3.03-4.913-5.486-10.972-5.486H1148.63c-6.058,0-10.972,2.456-10.972,5.486V568.172z"/>
	<path fill="#D2D4D6" d="M890.745,1040.335c0,3.847,3.121,6.968,6.969,6.968h175.387c3.848,0,6.969-3.121,6.969-6.968v-72.013
		c0-3.85-3.121-6.971-6.969-6.971H897.714c-3.848,0-6.969,3.121-6.969,6.971V1040.335z"/>
	<path fill="#237EE2" d="M890.745,997.361c0,3.846,3.121,6.968,6.969,6.968h175.387c3.848,0,6.969-3.122,6.969-6.968v-72.016
		c0-3.85-3.121-6.968-6.969-6.968H897.714c-3.848,0-6.969,3.118-6.969,6.968V997.361z"/>
	<path fill="#D2D4D6" d="M890.745,954.384c0,3.847,3.121,6.968,6.969,6.968h175.387c3.848,0,6.969-3.121,6.969-6.968v-72.015
		c0-3.848-3.121-6.969-6.969-6.969H897.714c-3.848,0-6.969,3.121-6.969,6.969V954.384z"/>
	<path fill="#237EE2" d="M890.745,911.41c0,3.846,3.121,6.968,6.969,6.968h175.387c3.848,0,6.969-3.122,6.969-6.968v-72.016
		c0-3.85-3.121-6.968-6.969-6.968H897.714c-3.848,0-6.969,3.118-6.969,6.968V911.41z"/>
	<path fill="#D2D4D6" d="M890.745,868.43c0,3.85,3.121,6.971,6.969,6.971h175.387c3.848,0,6.969-3.121,6.969-6.971v-72.012
		c0-3.849-3.121-6.97-6.969-6.97H897.714c-3.848,0-6.969,3.121-6.969,6.97V868.43z"/>
	<path fill="#237EE2" d="M890.745,825.456c0,3.85,3.121,6.971,6.969,6.971h175.387c3.848,0,6.969-3.121,6.969-6.971v-72.013
		c0-3.851-3.121-6.969-6.969-6.969H897.714c-3.848,0-6.969,3.119-6.969,6.969V825.456z"/>
	<path fill="#D2D4D6" d="M890.745,782.48c0,3.847,3.121,6.968,6.969,6.968h175.387c3.848,0,6.969-3.121,6.969-6.968v-72.014
		c0-3.85-3.121-6.97-6.969-6.97H897.714c-3.848,0-6.969,3.12-6.969,6.97V782.48z"/>
	<path fill="#237EE2" d="M890.745,742.989c0,1.925,3.121,3.485,6.969,3.485h175.387c3.848,0,6.969-1.561,6.969-3.485v-36.007
		c0-1.923-3.121-3.484-6.969-3.484H897.714c-3.848,0-6.969,1.561-6.969,3.484V742.989z"/>
</g>
<g>
	<path d="M877.997,1204.516c0,47.237-16.119,64.477-60.222,64.477c-46.566,0-63.357-17.239-63.357-64.477v-92.907h34.029v92.907
		c0,28.431,6.716,36.939,27.761,36.939c20.597,0,27.537-8.509,27.537-36.939v-92.907h34.253V1204.516z"/>
	<path d="M998.659,1156.832l-2.24,21.266c-14.104-0.222-28.656-0.447-42.536-0.447c-17.238,0-21.269,0-21.269,7.387
		c0,6.718,4.031,6.94,14.553,9.851l28.208,7.611c18.806,5.374,27.313,12.985,27.313,32.239c0,27.314-15,33.807-50.596,33.807
		c-8.284,0-28.209-0.225-49.477-3.807l2.015-21.492c8.061,0.447,23.507,0.447,38.283,0.447c22.612,0,27.76-1.119,27.76-8.283
		c0-6.715-4.702-7.165-15.671-10.298l-27.537-7.39c-21.044-6.042-26.865-16.117-26.865-33.579c0-23.061,12.537-31.566,47.013-31.566
		C963.511,1152.799,985.002,1154.368,998.659,1156.832z"/>
	<path d="M1121.783,1239.889l3.134,20.595c-12.984,6.271-32.462,8.284-48.132,8.284c-41.865,0-57.536-17.015-57.536-57.76
		c0-43.654,16.119-58.431,56.191-58.431c37.612,0,52.164,13.207,52.387,38.506c0,20.15-9.626,30.895-33.581,30.895h-39.85
		c2.24,16.79,9.403,20.372,26.194,20.372C1090.664,1242.35,1106.783,1241.455,1121.783,1239.889z M1053.726,1202.053h31.343
		c8.955,0,10.297-5.148,10.297-11.417c0-10.3-4.477-13.882-18.805-13.882C1059.994,1176.531,1054.622,1181.233,1053.726,1202.053z"
		/>
	<path d="M1225.208,1183.246h-8.955c-9.626,0-18.806,2.464-33.806,7.612v75.224h-33.133V1155.71h25.746l2.911,16.345
		c14.775-12.538,30.445-19.478,44.773-19.478h5.822L1225.208,1183.246z"/>
	<path d="M1372.286,1188.845c0,61.116-17.238,79.251-65.819,79.251c-23.282,0-42.312-0.895-59.999-2.014v-154.474
		c17.687-1.119,36.491-2.017,59.999-2.017C1355.048,1109.592,1372.286,1127.726,1372.286,1188.845z M1336.465,1188.845
		c0-40.521-6.939-52.61-29.999-52.61c-9.85,0-18.134,0.223-25.969,0.223v104.551c7.835,0,16.566,0.223,25.969,0.223
		C1329.526,1241.23,1336.465,1229.367,1336.465,1188.845z"/>
	<path d="M1494.514,1239.889l3.135,20.595c-12.985,6.271-32.462,8.284-48.134,8.284c-41.863,0-57.536-17.015-57.536-57.76
		c0-43.654,16.119-58.431,56.193-58.431c37.61,0,52.163,13.207,52.387,38.506c0,20.15-9.626,30.895-33.581,30.895h-39.85
		c2.238,16.79,9.403,20.372,26.192,20.372C1463.396,1242.35,1479.515,1241.455,1494.514,1239.889z M1426.456,1202.053h31.343
		c8.954,0,10.298-5.148,10.298-11.417c0-10.3-4.478-13.882-18.806-13.882C1432.725,1176.531,1427.352,1181.233,1426.456,1202.053z"
		/>
	<path d="M1580.028,1129.069c-11.194,0-14.776,3.808-14.776,14.33v12.311h30.447v22.166h-30.447v88.206h-33.357v-88.206h-19.253
		v-21.044l19.253-1.122v-16.79c0-20.598,9.627-34.029,36.268-34.029c8.061,0,25.971,0.449,35.821,2.241l-3.134,21.938H1580.028z"/>
	<path d="M1712.78,1193.1v72.982h-26.193l-3.357-16.793c-7.837,9.181-21.27,19.479-40.746,19.479
		c-20.597,0-36.044-11.194-36.044-31.789v-11.193c0-17.688,12.762-27.984,33.806-27.984h39.401v-4.927
		c-0.224-11.193-4.029-14.329-18.134-14.329c-10.521,0-28.879,0.672-46.566,1.791l-3.134-22.385
		c16.119-2.911,42.089-5.374,57.536-5.374C1697.78,1152.577,1712.78,1161.98,1712.78,1193.1z M1639.125,1232.5
		c0,7.836,4.03,11.419,12.985,11.419c7.611,0,18.134-3.583,27.536-10.747v-15.449h-29.774c-8.061,0.226-10.747,4.255-10.747,10.522
		V1232.5z"/>
	<path d="M1843.739,1266.082h-26.194l-2.462-15.224c-15.224,12.313-29.775,18.134-45.671,18.134
		c-20.597,0-31.119-10.3-31.119-30.672v-82.61h33.134v72.535c-0.224,9.628,2.91,12.985,11.865,12.985
		c8.06,0,15.896-2.91,27.536-9.178v-76.343h32.911V1266.082z"/>
	<path d="M1904.179,1230.036c0,7.612,4.253,11.194,12.537,11.194h8.954l3.807,23.061c-5.598,2.91-19.253,4.477-26.417,4.477
		c-19.478,0-31.791-10.97-31.791-30.447v-128.95h32.91V1230.036z"/>
	<path d="M1984.547,1230.036c0,8.284,3.134,11.194,12.09,11.194h14.103l3.583,23.061c-8.282,2.91-23.282,4.477-31.118,4.477
		c-19.925,0-31.566-11.642-31.566-31.789v-59.103h-19.478v-21.044l19.478-1.122v-30.895h32.909v30.895h30.671v22.166h-30.671
		V1230.036z"/>
	<path d="M2126.255,1156.832l-2.238,21.266c-14.104-0.222-28.656-0.447-42.537-0.447c-17.238,0-21.268,0-21.268,7.387
		c0,6.718,4.029,6.94,14.552,9.851l28.209,7.611c18.805,5.374,27.312,12.985,27.312,32.239c0,27.314-14.998,33.807-50.596,33.807
		c-8.282,0-28.207-0.225-49.475-3.807l2.015-21.492c8.059,0.447,23.506,0.447,38.282,0.447c22.61,0,27.761-1.119,27.761-8.283
		c0-6.715-4.702-7.165-15.673-10.298l-27.535-7.39c-21.044-6.042-26.866-16.117-26.866-33.579c0-23.061,12.538-31.566,47.015-31.566
		C2091.106,1152.799,2112.599,1154.368,2126.255,1156.832z"/>
	<path d="M2254.527,1114.743l-2.237,23.282c-12.986-0.449-32.014-0.672-48.358-0.672c-16.565,0-22.387,0.895-22.387,14.104
		c0,10.744,4.479,13.654,16.119,17.462l29.328,10.075c24.625,8.73,32.686,22.835,32.686,45.445
		c0,35.148-15.224,44.552-57.312,44.552c-9.852,0-29.328-0.672-53.06-5.82l2.015-24.627c28.656,0.672,41.193,1.119,51.045,1.119
		c17.91,0,22.835-2.463,22.835-14.998c0-10.973-4.255-13.658-14.553-17.016l-31.118-10.972
		c-23.507-8.506-32.015-22.386-32.015-45.221c0-35.374,16.343-42.761,56.192-42.761
		C2218.932,1108.697,2237.289,1109.816,2254.527,1114.743z"/>
	<path d="M2323.699,1230.036c0,8.284,3.134,11.194,12.089,11.194h14.104l3.582,23.061c-8.282,2.91-23.282,4.477-31.117,4.477
		c-19.926,0-31.566-11.642-31.566-31.789v-59.103h-19.479v-21.044l19.479-1.122v-30.895h32.909v30.895h30.67v22.166h-30.67V1230.036
		z"/>
	<path d="M2481.526,1211.008c0,42.313-15.447,57.984-56.641,57.984c-41.417,0-56.864-15.671-56.864-57.984
		c0-42.535,15.447-58.431,56.864-58.431C2466.079,1152.577,2481.526,1168.473,2481.526,1211.008z M2402.722,1211.008
		c0,26.418,4.701,33.133,22.164,33.133c17.014,0,21.94-6.715,21.94-33.133c0-26.864-4.927-33.582-21.94-33.582
		C2407.423,1177.426,2402.722,1184.144,2402.722,1211.008z"/>
	<path d="M2580.023,1183.246h-8.956c-9.626,0-18.806,2.464-33.804,7.612v75.224h-33.134V1155.71h25.745l2.91,16.345
		c14.776-12.538,30.447-19.478,44.775-19.478h5.82L2580.023,1183.246z"/>
	<path d="M2695.537,1239.889l3.136,20.595c-12.985,6.271-32.462,8.284-48.134,8.284c-41.863,0-57.536-17.015-57.536-57.76
		c0-43.654,16.119-58.431,56.193-58.431c37.61,0,52.163,13.207,52.387,38.506c0,20.15-9.627,30.895-33.581,30.895h-39.85
		c2.238,16.79,9.402,20.372,26.192,20.372C2664.42,1242.35,2680.539,1241.455,2695.537,1239.889z M2627.479,1202.053h31.343
		c8.955,0,10.299-5.148,10.299-11.417c0-10.3-4.478-13.882-18.806-13.882C2633.749,1176.531,2628.376,1181.233,2627.479,1202.053z"
		/>
</g>
</svg>
