<?xml version="1.0" encoding="UTF-8"?>
<svg width="800px" height="460px" viewBox="0 0 800 460" version="1.1" xmlns="http://www.w3.org/2000/svg" xmlns:xlink="http://www.w3.org/1999/xlink">
    <!-- Generator: Sketch 51 (57462) - http://www.bohemiancoding.com/sketch -->
    <title>logo</title>
    <desc>Created with Sketch.</desc>
    <defs></defs>
    <g id="logo" stroke="none" stroke-width="1" fill="none" fill-rule="evenodd">
        <g transform="translate(13.000000, 17.000000)" fill-rule="nonzero" id="Group">
            <g transform="translate(54.000000, 0.000000)">
                <path d="M426.891541,331.856758 C426.891541,335.648549 423.813233,338.7226 420.016188,338.7226 L246.98421,338.7226 C243.186767,338.7226 240.108857,335.648549 240.108857,331.856758 L240.108857,260.909184 C240.108857,257.117392 243.186767,254.042943 246.98421,254.042943 L420.016188,254.042943 C423.813233,254.042943 426.891541,257.117392 426.891541,260.909184 L426.891541,331.856758 Z" id="Shape" fill="#D2D4D6"></path>
                <path d="M426.891541,289.517127 C426.891541,293.308523 423.813233,296.382574 420.016188,296.382574 L246.98421,296.382574 C243.186767,296.382574 240.108857,293.308523 240.108857,289.517127 L240.108857,218.56876 C240.108857,214.77657 243.186767,211.702917 246.98421,211.702917 L420.016188,211.702917 C423.813233,211.702917 426.891541,214.77657 426.891541,218.56876 L426.891541,289.517127 Z" id="Shape" fill="#237EE2"></path>
                <path d="M426.891541,247.177101 C426.891541,250.968893 423.813233,254.042546 420.016188,254.042546 L246.98421,254.042546 C243.186767,254.042546 240.108857,250.968893 240.108857,247.177101 L240.108857,176.22913 C240.108857,172.437337 243.186767,169.363287 246.98421,169.363287 L420.016188,169.363287 C423.813233,169.363287 426.891541,172.437337 426.891541,176.22913 L426.891541,247.177101 Z" id="Shape" fill="#D2D4D6"></path>
                <path d="M426.891541,204.837074 C426.891541,208.628867 423.813233,211.702917 420.016188,211.702917 L246.98421,211.702917 C243.186767,211.702917 240.108857,208.628469 240.108857,204.837074 L240.108857,133.889103 C240.108857,130.096913 243.186767,127.023261 246.98421,127.023261 L420.016188,127.023261 C423.813233,127.023261 426.891541,130.096913 426.891541,133.889103 L426.891541,204.837074 Z" id="Shape" fill="#237EE2"></path>
                <path d="M426.891541,162.497046 C426.891541,166.288839 423.813233,169.36289 420.016188,169.36289 L246.98421,169.36289 C243.186767,169.36289 240.108857,166.288839 240.108857,162.497046 L240.108857,91.5490762 C240.108857,87.7572837 243.186767,84.6832333 246.98421,84.6832333 L420.016188,84.6832333 C423.813233,84.6832333 426.891541,87.7572837 426.891541,91.5490762 L426.891541,162.497046 Z" id="Shape" fill="#D2D4D6"></path>
                <path d="M426.891541,120.15702 C426.891541,123.948812 423.813233,127.022863 420.016188,127.022863 L246.98421,127.022863 C243.186767,127.022863 240.108857,123.948415 240.108857,120.15702 L240.108857,49.2090492 C240.108857,45.4168593 243.186767,42.3432064 246.98421,42.3432064 L420.016188,42.3432064 C423.813233,42.3432064 426.891541,45.4168593 426.891541,49.2090492 L426.891541,120.15702 Z" id="Shape" fill="#237EE2"></path>
                <path d="M426.891541,77.8169929 C426.891541,81.6087855 423.813233,84.6828359 420.016188,84.6828359 L246.98421,84.6828359 C243.186767,84.6828359 240.108857,81.6087855 240.108857,77.8169929 L240.108857,6.86902227 C240.108857,3.07722978 243.186767,0.00317936694 246.98421,0.00317936694 L420.016188,0.00317936694 C423.813233,0.00317936694 426.891541,3.07722978 426.891541,6.86902227 L426.891541,77.8169929 Z" id="Shape" fill="#D2D4D6"></path>
                <path d="M426.891541,38.9102848 C426.891541,40.8059824 423.813233,42.3432064 420.016188,42.3432064 L246.98421,42.3432064 C243.186767,42.3432064 240.108857,40.8059824 240.108857,38.9102848 L240.108857,3.43610082 C240.108857,1.53960844 243.186767,0.00317936694 246.98421,0.00317936694 L420.016188,0.00317936694 C423.813233,0.00317936694 426.891541,1.53960844 426.891541,3.43610082 L426.891541,38.9102848 Z" id="Shape" fill="#237EE2"></path>
                <path d="M568.439209,334.362496 C568.439209,336.770867 566.483976,338.722998 564.072667,338.722998 L454.17606,338.722998 C451.764751,338.722998 449.809518,336.770867 449.809518,334.362496 L449.809518,289.302123 C449.809518,286.894151 451.764751,284.940429 454.17606,284.940429 L564.072667,284.940429 C566.483976,284.940429 568.439209,286.894151 568.439209,289.302123 L568.439209,334.362496 Z" id="Shape" fill="#D2D4D6"></path>
                <path d="M568.439209,307.471808 C568.439209,309.880178 566.483976,311.832707 564.072667,311.832707 L454.17606,311.832707 C451.764751,311.832707 449.809518,309.880178 449.809518,307.471808 L449.809518,262.411832 C449.809518,260.00227 451.764751,258.05133 454.17606,258.05133 L564.072667,258.05133 C566.483976,258.05133 568.439209,260.00227 568.439209,262.411832 L568.439209,307.471808 Z" id="Shape" fill="#237EE2"></path>
                <path d="M568.439209,280.580324 C568.439209,282.988695 566.483976,284.940826 564.072667,284.940826 L454.17606,284.940826 C451.764751,284.940826 449.809518,282.988695 449.809518,280.580324 L449.809518,235.519952 C449.809518,233.111582 451.764751,231.159053 454.17606,231.159053 L564.072667,231.159053 C566.483976,231.159053 568.439209,233.111582 568.439209,235.519952 L568.439209,280.580324 Z" id="Shape" fill="#D2D4D6"></path>
                <path d="M568.439209,253.691226 C568.439209,256.098404 566.483976,258.051728 564.072667,258.051728 L454.17606,258.051728 C451.764751,258.051728 449.809518,256.098404 449.809518,253.691226 L449.809518,208.629264 C449.809518,206.219701 451.764751,204.268762 454.17606,204.268762 L564.072667,204.268762 C566.483976,204.268762 568.439209,206.219701 568.439209,208.629264 L568.439209,253.691226 Z" id="Shape" fill="#237EE2"></path>
                <path d="M568.439209,226.798154 C568.439209,229.206524 566.483976,231.159053 564.072667,231.159053 L454.17606,231.159053 C451.764751,231.159053 449.809518,229.206126 449.809518,226.798154 L449.809518,181.737781 C449.809518,179.329808 451.764751,177.377279 454.17606,177.377279 L564.072667,177.377279 C566.483976,177.377279 568.439209,179.330205 568.439209,181.737781 L568.439209,226.798154 Z" id="Shape" fill="#D2D4D6"></path>
                <path d="M568.439209,199.908261 C568.439209,202.315835 566.483976,204.268762 564.072667,204.268762 L454.17606,204.268762 C451.764751,204.268762 449.809518,202.315835 449.809518,199.908261 L449.809518,154.847888 C449.809518,152.438324 451.764751,150.487386 454.17606,150.487386 L564.072667,150.487386 C566.483976,150.487386 568.439209,152.438722 568.439209,154.847888 L568.439209,199.908261 Z" id="Shape" fill="#237EE2"></path>
                <path d="M568.439209,173.016777 C568.439209,175.424751 566.483976,177.377279 564.072667,177.377279 L454.17606,177.377279 C451.764751,177.377279 449.809518,175.424353 449.809518,173.016777 L449.809518,127.956007 C449.809518,125.547636 451.764751,123.595505 454.17606,123.595505 L564.072667,123.595505 C566.483976,123.595505 568.439209,125.547636 568.439209,127.956007 L568.439209,173.016777 Z" id="Shape" fill="#D2D4D6"></path>
                <path d="M568.439209,148.30634 C568.439209,149.510525 566.483976,150.486988 564.072667,150.486988 L454.17606,150.486988 C451.764751,150.486988 449.809518,149.510127 449.809518,148.30634 L449.809518,125.775757 C449.809518,124.571571 451.764751,123.595505 454.17606,123.595505 L564.072667,123.595505 C566.483976,123.595505 568.439209,124.571571 568.439209,125.775757 L568.439209,148.30634 Z" id="Shape" fill="#237EE2"></path>
                <path d="M666.703909,335.953769 C666.703909,337.482647 665.461841,338.722998 663.930049,338.722998 L594.131046,338.722998 C592.599254,338.722998 591.357185,337.482647 591.357185,335.953769 L591.357185,307.3343 C591.357185,305.804229 592.599254,304.563879 594.131046,304.563879 L663.930049,304.563879 C665.461841,304.563879 666.703909,305.804229 666.703909,307.3343 L666.703909,335.953769 Z" id="Shape" fill="#D2D4D6"></path>
                <path d="M666.703909,318.875005 C666.703909,320.403486 665.461841,321.644233 663.930049,321.644233 L594.131046,321.644233 C592.599254,321.644233 591.357185,320.403486 591.357185,318.875005 L591.357185,290.254343 C591.357185,288.724273 592.599254,287.485115 594.131046,287.485115 L663.930049,287.485115 C665.461841,287.485115 666.703909,288.724273 666.703909,290.254343 L666.703909,318.875005 Z" id="Shape" fill="#237EE2"></path>
                <path d="M666.703909,301.795048 C666.703909,303.323926 665.461841,304.564277 663.930049,304.564277 L594.131046,304.564277 C592.599254,304.564277 591.357185,303.323926 591.357185,301.795048 L591.357185,273.174784 C591.357185,271.645509 592.599254,270.405159 594.131046,270.405159 L663.930049,270.405159 C665.461841,270.405159 666.703909,271.645509 666.703909,273.174784 L666.703909,301.795048 Z" id="Shape" fill="#D2D4D6"></path>
                <path d="M666.703909,284.716284 C666.703909,286.244765 665.461841,287.485512 663.930049,287.485512 L594.131046,287.485512 C592.599254,287.485512 591.357185,286.244765 591.357185,284.716284 L591.357185,256.095622 C591.357185,254.565553 592.599254,253.326394 594.131046,253.326394 L663.930049,253.326394 C665.461841,253.326394 666.703909,254.565553 666.703909,256.095622 L666.703909,284.716284 Z" id="Shape" fill="#237EE2"></path>
                <path d="M666.703909,267.635134 C666.703909,269.165205 665.461841,270.405556 663.930049,270.405556 L594.131046,270.405556 C592.599254,270.405556 591.357185,269.165205 591.357185,267.635134 L591.357185,239.016064 C591.357185,237.48639 592.599254,236.246039 594.131046,236.246039 L663.930049,236.246039 C665.461841,236.246039 666.703909,237.48639 666.703909,239.016064 L666.703909,267.635134 Z" id="Shape" fill="#D2D4D6"></path>
                <path d="M666.703909,250.556371 C666.703909,252.08644 665.461841,253.326791 663.930049,253.326791 L594.131046,253.326791 C592.599254,253.326791 591.357185,252.08644 591.357185,250.556371 L591.357185,221.936902 C591.357185,220.406433 592.599254,219.167276 594.131046,219.167276 L663.930049,219.167276 C665.461841,219.167276 666.703909,220.406831 666.703909,221.936902 L666.703909,250.556371 Z" id="Shape" fill="#237EE2"></path>
                <path d="M666.703909,233.476811 C666.703909,235.005689 665.461841,236.246039 663.930049,236.246039 L594.131046,236.246039 C592.599254,236.246039 591.357185,235.005689 591.357185,233.476811 L591.357185,204.856944 C591.357185,203.326875 592.599254,202.086921 594.131046,202.086921 L663.930049,202.086921 C665.461841,202.086921 666.703909,203.326875 666.703909,204.856944 L666.703909,233.476811 Z" id="Shape" fill="#D2D4D6"></path>
                <path d="M666.703909,217.782264 C666.703909,218.547299 665.461841,219.167276 663.930049,219.167276 L594.131046,219.167276 C592.599254,219.167276 591.357185,218.546902 591.357185,217.782264 L591.357185,203.47233 C591.357185,202.70809 592.599254,202.087716 594.131046,202.087716 L663.930049,202.087716 C665.461841,202.087716 666.703909,202.70809 666.703909,203.47233 L666.703909,217.782264 Z" id="Shape" fill="#237EE2"></path>
                <path d="M98.5607911,334.362496 C98.5607911,336.770867 100.516422,338.722998 102.927333,338.722998 L212.82394,338.722998 C215.235249,338.722998 217.190482,336.770867 217.190482,334.362496 L217.190482,289.302123 C217.190482,286.894151 215.235249,284.940429 212.82394,284.940429 L102.927333,284.940429 C100.516422,284.940429 98.5607911,286.894151 98.5607911,289.302123 L98.5607911,334.362496 Z" id="Shape" fill="#D2D4D6"></path>
                <path d="M98.5607911,307.471808 C98.5607911,309.880178 100.516422,311.832707 102.927333,311.832707 L212.82394,311.832707 C215.235249,311.832707 217.190482,309.880178 217.190482,307.471808 L217.190482,262.411832 C217.190482,260.00227 215.235249,258.05133 212.82394,258.05133 L102.927333,258.05133 C100.516422,258.05133 98.5607911,260.00227 98.5607911,262.411832 L98.5607911,307.471808 Z" id="Shape" fill="#237EE2"></path>
                <path d="M98.5607911,280.580324 C98.5607911,282.988695 100.516422,284.940826 102.927333,284.940826 L212.82394,284.940826 C215.235249,284.940826 217.190482,282.988695 217.190482,280.580324 L217.190482,235.519952 C217.190482,233.111582 215.235249,231.159053 212.82394,231.159053 L102.927333,231.159053 C100.516422,231.159053 98.5607911,233.111582 98.5607911,235.519952 L98.5607911,280.580324 Z" id="Shape" fill="#D2D4D6"></path>
                <path d="M98.5607911,253.691226 C98.5607911,256.098404 100.516422,258.051728 102.927333,258.051728 L212.82394,258.051728 C215.235249,258.051728 217.190482,256.098404 217.190482,253.691226 L217.190482,208.629264 C217.190482,206.219701 215.235249,204.268762 212.82394,204.268762 L102.927333,204.268762 C100.516422,204.268762 98.5607911,206.219701 98.5607911,208.629264 L98.5607911,253.691226 Z" id="Shape" fill="#237EE2"></path>
                <path d="M98.5607911,226.798154 C98.5607911,229.206524 100.516422,231.159053 102.927333,231.159053 L212.82394,231.159053 C215.235249,231.159053 217.190482,229.206126 217.190482,226.798154 L217.190482,181.737781 C217.190482,179.329808 215.235249,177.377279 212.82394,177.377279 L102.927333,177.377279 C100.516422,177.377279 98.5607911,179.330205 98.5607911,181.737781 L98.5607911,226.798154 Z" id="Shape" fill="#D2D4D6"></path>
                <path d="M98.5607911,199.908261 C98.5607911,202.315835 100.516422,204.268762 102.927333,204.268762 L212.82394,204.268762 C215.235249,204.268762 217.190482,202.315835 217.190482,199.908261 L217.190482,154.847888 C217.190482,152.438324 215.235249,150.487386 212.82394,150.487386 L102.927333,150.487386 C100.516422,150.487386 98.5607911,152.438722 98.5607911,154.847888 L98.5607911,199.908261 Z" id="Shape" fill="#237EE2"></path>
                <path d="M98.5607911,173.016777 C98.5607911,175.424751 100.516422,177.377279 102.927333,177.377279 L212.82394,177.377279 C215.235249,177.377279 217.190482,175.424353 217.190482,173.016777 L217.190482,127.956007 C217.190482,125.547636 215.235249,123.595505 212.82394,123.595505 L102.927333,123.595505 C100.516422,123.595505 98.5607911,125.547636 98.5607911,127.956007 L98.5607911,173.016777 Z" id="Shape" fill="#D2D4D6"></path>
                <path d="M98.5607911,148.30634 C98.5607911,149.510525 100.516422,150.486988 102.927333,150.486988 L212.82394,150.486988 C215.235249,150.486988 217.190482,149.510127 217.190482,148.30634 L217.190482,125.775757 C217.190482,124.571571 215.235249,123.595505 212.82394,123.595505 L102.927333,123.595505 C100.516422,123.595505 98.5607911,124.571571 98.5607911,125.775757 L98.5607911,148.30634 Z" id="Shape" fill="#237EE2"></path>
                <path d="M0.296488664,335.953769 C0.296488664,337.482647 1.53855728,338.722998 3.06995107,338.722998 L72.8689541,338.722998 C74.4003479,338.722998 75.6424164,337.482647 75.6424164,335.953769 L75.6424164,307.3343 C75.6424164,305.804229 74.4003479,304.563879 72.8689541,304.563879 L3.06995107,304.563879 C1.53855728,304.563879 0.296488664,305.804229 0.296488664,307.3343 L0.296488664,335.953769 Z" id="Shape" fill="#D2D4D6"></path>
                <path d="M0.296488664,318.875005 C0.296488664,320.403486 1.53855728,321.644233 3.06995107,321.644233 L72.8689541,321.644233 C74.4003479,321.644233 75.6424164,320.403486 75.6424164,318.875005 L75.6424164,290.254343 C75.6424164,288.724273 74.4003479,287.485115 72.8689541,287.485115 L3.06995107,287.485115 C1.53855728,287.485115 0.296488664,288.724273 0.296488664,290.254343 L0.296488664,318.875005 Z" id="Shape" fill="#237EE2"></path>
                <path d="M0.296488664,301.795048 C0.296488664,303.323926 1.53855728,304.564277 3.06995107,304.564277 L72.8689541,304.564277 C74.4003479,304.564277 75.6424164,303.323926 75.6424164,301.795048 L75.6424164,273.174784 C75.6424164,271.645509 74.4003479,270.405159 72.8689541,270.405159 L3.06995107,270.405159 C1.53855728,270.405159 0.296488664,271.645509 0.296488664,273.174784 L0.296488664,301.795048 Z" id="Shape" fill="#D2D4D6"></path>
                <path d="M0.296488664,284.716284 C0.296488664,286.244765 1.53855728,287.485512 3.06995107,287.485512 L72.8689541,287.485512 C74.4003479,287.485512 75.6424164,286.244765 75.6424164,284.716284 L75.6424164,256.095622 C75.6424164,254.565553 74.4003479,253.326394 72.8689541,253.326394 L3.06995107,253.326394 C1.53855728,253.326394 0.296488664,254.565553 0.296488664,256.095622 L0.296488664,284.716284 Z" id="Shape" fill="#237EE2"></path>
                <path d="M0.296488664,267.635134 C0.296488664,269.165205 1.53855728,270.405556 3.06995107,270.405556 L72.8689541,270.405556 C74.4003479,270.405556 75.6424164,269.165205 75.6424164,267.635134 L75.6424164,239.016064 C75.6424164,237.48639 74.4003479,236.246039 72.8689541,236.246039 L3.06995107,236.246039 C1.53855728,236.246039 0.296488664,237.48639 0.296488664,239.016064 L0.296488664,267.635134 Z" id="Shape" fill="#D2D4D6"></path>
                <path d="M0.296488664,250.556371 C0.296488664,252.08644 1.53855728,253.326791 3.06995107,253.326791 L72.8689541,253.326791 C74.4003479,253.326791 75.6424164,252.08644 75.6424164,250.556371 L75.6424164,221.936902 C75.6424164,220.406433 74.4003479,219.167276 72.8689541,219.167276 L3.06995107,219.167276 C1.53855728,219.167276 0.296488664,220.406831 0.296488664,221.936902 L0.296488664,250.556371 Z" id="Shape" fill="#237EE2"></path>
                <path d="M0.296488664,233.476811 C0.296488664,235.005689 1.53855728,236.246039 3.06995107,236.246039 L72.8689541,236.246039 C74.4003479,236.246039 75.6424164,235.005689 75.6424164,233.476811 L75.6424164,204.856944 C75.6424164,203.326875 74.4003479,202.086921 72.8689541,202.086921 L3.06995107,202.086921 C1.53855728,202.086921 0.296488664,203.326875 0.296488664,204.856944 L0.296488664,233.476811 Z" id="Shape" fill="#D2D4D6"></path>
                <path d="M0.296488664,217.782264 C0.296488664,218.547299 1.53855728,219.167276 3.06995107,219.167276 L72.8689541,219.167276 C74.4003479,219.167276 75.6424164,218.546902 75.6424164,217.782264 L75.6424164,203.47233 C75.6424164,202.70809 74.4003479,202.087716 72.8689541,202.087716 L3.06995107,202.087716 C1.53855728,202.087716 0.296488664,202.70809 0.296488664,203.47233 L0.296488664,217.782264 Z" id="Shape" fill="#237EE2"></path>
            </g>
            <g transform="translate(0.000000, 361.000000)" fill="#000000">
                <path d="M49.3314554,40.2064 C49.3314554,59.1012 42.9186088,65.9972 25.3724974,65.9972 C6.84649641,65.9972 0.166298768,59.1015999 0.166298768,40.2064 L0.166298768,3.0436 L13.7045303,3.0436 L13.7045303,40.2064 C13.7045303,51.5788 16.3764502,54.982 24.749076,54.982 C32.9434676,54.982 35.7045046,51.5784 35.7045046,40.2064 L35.7045046,3.0436 L49.3318532,3.0436 L49.3318532,40.2064 L49.3314554,40.2064 Z" id="Shape"></path>
                <path d="M97.3361011,21.1328 L96.4449307,29.6391999 C90.8337398,29.5504 85.0443147,29.4604 79.5222408,29.4604 C72.6642069,29.4604 71.060498,29.4604 71.060498,32.4152 C71.060498,35.1024 72.6642069,35.1912 76.8503208,36.3556 L88.0727028,39.4 C95.554556,41.5496 98.9390143,44.594 98.9390143,52.2956 C98.9390143,63.2212 92.9713552,65.8184 78.8097023,65.8184 C75.513963,65.8184 67.5869225,65.7284 59.1255775,64.2956 L59.9272331,55.6988001 C63.1342531,55.8776 69.2793506,55.8776 75.1578927,55.8776 C84.1539399,55.8776 86.2020405,55.43 86.2020405,52.5644 C86.2020405,49.8784 84.3313784,49.6984 79.9674281,48.4452 L69.0119995,45.4892 C60.6397716,43.0724 58.323922,39.0424 58.323922,32.0576001 C58.323922,22.8332 63.3116914,19.4312 77.0277592,19.4312 C83.3526822,19.5196 91.9027464,20.1472 97.3361011,21.1328 Z" id="Shape"></path>
                <path d="M146.320239,54.3556 L147.567081,62.5936 C142.401476,65.102 134.652272,65.9072 128.418057,65.9072 C111.762321,65.9072 105.527708,59.1012 105.527708,42.8032 C105.527708,25.3416 111.940555,19.4308 127.882957,19.4308 C142.846664,19.4308 148.636088,24.7136 148.724808,34.8332 C148.724808,42.8932 144.895162,47.1912 135.36481,47.1912 L119.510729,47.1912 C120.401899,53.9072 123.251655,55.34 129.931853,55.34 C133.939733,55.34 140.35258,54.982 146.320239,54.3556 Z M119.244174,39.2212 L131.713796,39.2212 C135.276489,39.2212 135.810395,37.162 135.810395,34.6544 C135.810395,30.5344 134.029248,29.1016 128.32894,29.1016 C121.737859,29.0124 119.600642,30.8931999 119.244174,39.2212 Z" id="Shape"></path>
                <path d="M187.467248,31.6983999 L183.904556,31.6983999 C180.07491,31.6983999 176.422703,32.684 170.455044,34.7432 L170.455044,64.8328 L157.27328,64.8328 L157.27328,20.684 L167.51617,20.684 L168.674295,27.222 C174.552439,22.2068 180.786653,19.4308 186.48696,19.4308 L188.803208,19.4308 L187.467248,31.6983999 Z" id="Shape"></path>
                <path d="M245.98134,33.938 C245.98134,58.3844 239.123306,65.6384001 219.795649,65.6384001 C210.533047,65.6384001 202.962076,65.2804 195.925411,64.8328 L195.925411,3.0432 C202.962076,2.5956 210.443134,2.2364 219.795649,2.2364 C239.123306,2.2368 245.98134,9.4904 245.98134,33.938 Z M231.730172,33.938 C231.730172,17.7296 228.969533,12.894 219.795252,12.894 C215.876489,12.894 212.580749,12.9832 209.463642,12.9832 L209.463642,54.8036 C212.580749,54.8036 216.054325,54.8928 219.795252,54.8928 C228.969533,54.892 231.730172,50.1468 231.730172,33.938 Z" id="Shape"></path>
                <path d="M294.609009,54.3556 L295.85625,62.5936 C290.690247,65.102 282.94144,65.9072 276.706429,65.9072 C260.051489,65.9072 253.816081,59.1012 253.816081,42.8032 C253.816081,25.3416 260.228927,19.4308 276.172125,19.4308 C291.135036,19.4308 296.924859,24.7136 297.013976,34.8332 C297.013976,42.8932 293.18433,47.1912 283.653978,47.1912 L267.799898,47.1912 C268.690272,53.9072 271.540824,55.34 278.220226,55.34 C282.228902,55.34 288.641748,54.982 294.609009,54.3556 Z M267.532546,39.2212 L280.002169,39.2212 C283.564464,39.2212 284.099166,37.162 284.099166,34.6544 C284.099166,30.5344 282.317621,29.1016 276.617313,29.1016 C270.02663,29.0124 267.889014,30.8931999 267.532546,39.2212 Z" id="Shape"></path>
                <path d="M328.630236,10.0276 C324.176771,10.0276 322.751694,11.5508 322.751694,15.7596 L322.751694,20.684 L334.864848,20.684 L334.864848,29.5504 L322.751694,29.5504 L322.751694,64.8328 L309.480814,64.8328 L309.480814,29.5504 L301.821124,29.5504 L301.821124,21.1328 L309.480814,20.684 L309.480814,13.968 C309.480814,5.7288 313.310857,0.3564 323.909818,0.3564 C327.116838,0.3564 334.242223,0.536000001 338.160986,1.2528 L336.914143,10.028 L328.630236,10.028 L328.630236,10.0276 Z" id="Shape"></path>
                <path d="M381.444816,35.64 L381.444816,64.8328 L371.024089,64.8328 L369.688527,58.1156 C366.570623,61.788 361.226386,65.9072 353.477977,65.9072 C345.283586,65.9072 339.138091,61.4296 339.138091,53.1916 L339.138091,48.7144 C339.138091,41.6392 344.215375,37.5208 352.587602,37.5208 L368.263052,37.5208 L368.263052,35.55 C368.173934,31.0728 366.660138,29.8184 361.048549,29.8184 C356.862834,29.8184 349.559215,30.0872 342.522549,30.5348 L341.275705,21.5808 C347.688552,20.4164 358.02056,19.4312 364.166054,19.4312 C375.477156,19.4308 381.444816,23.192 381.444816,35.64 Z M352.14162,51.4 C352.14162,54.5343999 353.74493,55.9676 357.307623,55.9676 C360.335613,55.9676 364.522125,54.5343999 368.262654,51.6688 L368.262654,45.4892 L356.417248,45.4892 C353.210228,45.5796 352.14162,47.1912 352.14162,49.698 L352.14162,51.4 Z" id="Shape"></path>
                <path d="M433.54606,64.8328 L423.124936,64.8328 L422.145444,58.7432 C416.088668,63.6684 410.299641,65.9968 403.975513,65.9968 C395.781122,65.9968 391.595008,61.8768 391.595008,53.728 L391.595008,20.6836 L404.777169,20.684 L404.777169,49.698 C404.688052,53.5492 405.934895,54.892 409.497587,54.892 C412.70421,54.892 415.821715,53.728 420.452618,51.2208 L420.452618,20.6836 L433.54606,20.6836 L433.54606,64.8328 Z" id="Shape"></path>
                <path d="M457.591748,50.4144 C457.591748,53.4592 459.283779,54.892 462.579518,54.892 L466.141812,54.892 L467.656404,64.1164 C465.429273,65.2804 459.996715,65.9072 457.14656,65.9072 C449.397357,65.9072 444.498704,61.5192 444.498704,53.7284 L444.498704,2.1484 L457.591748,2.1484 L457.591748,50.4144 Z" id="Shape"></path>
                <path d="M489.56567,50.4144 C489.56567,53.728 490.812513,54.892 494.375603,54.892 L499.986396,54.892 L501.411871,64.1164 C498.116928,65.2804 492.149268,65.9072 489.031763,65.9072 C481.104723,65.9072 476.473421,61.2504 476.473421,53.1916 L476.473421,29.5504 L468.724217,29.5504 L468.724217,21.1328 L476.473421,20.684 L476.473421,8.326 L489.566068,8.326 L489.566068,20.684 L501.768339,20.684 L501.768339,29.5504 L489.566068,29.5504 L489.566068,50.4144 L489.56567,50.4144 Z" id="Shape"></path>
                <path d="M545.943339,21.1328 L545.052965,29.6391999 C539.441773,29.5504 533.652348,29.4604 528.129877,29.4604 C521.271843,29.4604 519.668532,29.4604 519.668532,32.4152 C519.668532,35.1024 521.271446,35.1912 525.457957,36.3556 L536.680737,39.4 C544.162192,41.5496 547.54665,44.594 547.54665,52.2956 C547.54665,63.2212 541.579787,65.8184 527.417338,65.8184 C524.122395,65.8184 516.195354,65.7284 507.734009,64.2956 L508.535664,55.6988001 C511.741889,55.8776 517.887384,55.8776 523.765926,55.8776 C532.761178,55.8776 534.810472,55.43 534.810472,52.5644 C534.810472,49.8784 532.93981,49.6984 528.575064,48.4452 L517.620431,45.4892 C509.248203,43.0724 506.931955,39.0424 506.931955,32.0576001 C506.931955,22.8332 511.920123,19.4312 525.636589,19.4312 C531.959523,19.5196 540.510383,20.1472 545.943339,21.1328 Z" id="Shape"></path>
                <path d="M596.975577,4.2972 L596.085601,13.61 C590.919199,13.4304 583.349024,13.3412 576.846664,13.3412 C570.256378,13.3412 567.940131,13.6992 567.940131,18.9828 C567.940131,23.2804 569.722074,24.4444 574.352977,25.9676 L586.020945,29.9976 C595.817851,33.4896 599.024872,39.1316 599.024872,48.1756 C599.024872,62.2348 592.968096,65.9964 576.223639,65.9964 C572.304081,65.9964 564.555673,65.7276 555.11404,63.6684 L555.915695,53.8176 C567.316311,54.0864 572.304081,54.2652 576.223639,54.2652 C583.349024,54.2652 585.308406,53.28 585.308406,48.266 C585.308406,43.8768 583.61558,42.8028 579.518583,41.4596 L567.138476,37.0707999 C557.786358,33.6684 554.401502,28.1164 554.401502,18.9824 C554.401502,4.8328 560.903465,1.878 576.757149,1.878 C582.814322,1.8788 590.117544,2.3264 596.975577,4.2972 Z" id="Shape"></path>
                <path d="M624.495239,50.4144 C624.495239,53.728 625.742081,54.892 629.304774,54.892 L634.915965,54.892 L636.341042,64.1164 C633.046098,65.2804 627.07844,65.9072 623.961332,65.9072 C616.033893,65.9072 611.40299,61.2504 611.40299,53.1916 L611.40299,29.5504 L603.653389,29.5504 L603.653389,21.1328 L611.40299,20.684 L611.40299,8.326 L624.495637,8.326 L624.495637,20.684 L636.69751,20.684 L636.69751,29.5504 L624.495637,29.5504 L624.495637,50.4144 L624.495239,50.4144 Z" id="Shape"></path>
                <path d="M687.285755,42.8032 C687.285755,59.7284 681.140259,65.9968 664.751476,65.9968 C648.273973,65.9968 642.128478,59.7284 642.128478,42.8032 C642.128478,25.7892 648.273973,19.4308 664.751476,19.4308 C681.140259,19.4308 687.285755,25.7892 687.285755,42.8032 Z M655.93406,42.8032 C655.93406,53.3704 657.804325,56.0564 664.751873,56.0564 C671.52079,56.0564 673.48057,53.3704 673.48057,42.8032 C673.48057,32.0576001 671.520393,29.3704 664.751873,29.3704 C657.804325,29.3704 655.93406,32.0576001 655.93406,42.8032 Z" id="Shape"></path>
                <path d="M726.47219,31.6983999 L722.909099,31.6983999 C719.079453,31.6983999 715.427246,32.684 709.460383,34.7432 L709.460383,64.8328 L696.278222,64.8328 L696.278222,20.684 L706.520714,20.684 L707.67844,27.222 C713.556982,22.2068 719.791594,19.4308 725.491902,19.4308 L727.807354,19.4308 L726.47219,31.6983999 Z" id="Shape"></path>
                <path d="M772.428735,54.3556 L773.676373,62.5936 C768.51037,65.102 760.761563,65.9072 754.526553,65.9072 C737.871611,65.9072 731.636204,59.1012 731.636204,42.8032 C731.636204,25.3416 738.04905,19.4308 753.992248,19.4308 C768.955159,19.4308 774.744982,24.7136 774.834099,34.8332 C774.834099,42.8932 771.004055,47.1912 761.474101,47.1912 L745.62002,47.1912 C746.510395,53.9072 749.36055,55.34 756.040349,55.34 C760.049024,55.34 766.461871,54.982 772.428735,54.3556 Z M745.352272,39.2212 L757.821894,39.2212 C761.384586,39.2212 761.91929,37.162 761.91929,34.6544 C761.91929,30.5344 760.137744,29.1016 754.437436,29.1016 C747.846753,29.0124 745.709138,30.8931999 745.352272,39.2212 Z" id="Shape"></path>
            </g>
        </g>
    </g>
</svg>