<?xml version="1.0" encoding="UTF-8"?>
<svg width="750px" height="300px" viewBox="0 0 750 300" version="1.1" xmlns="http://www.w3.org/2000/svg" xmlns:xlink="http://www.w3.org/1999/xlink">
    <!-- Generator: Sketch 51 (57462) - http://www.bohemiancoding.com/sketch -->
    <title>logo</title>
    <desc>Created with Sketch.</desc>
    <defs></defs>
    <g id="logo" stroke="none" stroke-width="1" fill="none" fill-rule="evenodd">
        <g transform="translate(140.000000, 21.000000)" fill-rule="nonzero" id="Group">
            <g transform="translate(33.000000, 0.000000)">
                <path d="M259.207008,201.659269 C259.207008,203.963425 257.33787,205.831433 255.032318,205.831433 L149.967923,205.831433 C147.66213,205.831433 145.793234,203.963425 145.793234,201.659269 L145.793234,158.546584 C145.793234,156.242427 147.66213,154.374178 149.967923,154.374178 L255.032318,154.374178 C257.33787,154.374178 259.207008,156.242427 259.207008,158.546584 L259.207008,201.659269 Z" id="Shape" fill="#D2D4D6"></path>
                <path d="M259.207008,175.930762 C259.207008,178.234677 257.33787,180.102685 255.032318,180.102685 L149.967923,180.102685 C147.66213,180.102685 145.793234,178.234677 145.793234,175.930762 L145.793234,132.817595 C145.793234,130.513196 147.66213,128.64543 149.967923,128.64543 L255.032318,128.64543 C257.33787,128.64543 259.207008,130.513196 259.207008,132.817595 L259.207008,175.930762 Z" id="Shape" fill="#237EE2"></path>
                <path d="M259.207008,150.202014 C259.207008,152.506171 257.33787,154.373936 255.032318,154.373936 L149.967923,154.373936 C147.66213,154.373936 145.793234,152.506171 145.793234,150.202014 L145.793234,107.089088 C145.793234,104.784931 147.66213,102.916924 149.967923,102.916924 L255.032318,102.916924 C257.33787,102.916924 259.207008,104.784931 259.207008,107.089088 L259.207008,150.202014 Z" id="Shape" fill="#D2D4D6"></path>
                <path d="M259.207008,124.473266 C259.207008,126.777423 257.33787,128.64543 255.032318,128.64543 L149.967923,128.64543 C147.66213,128.64543 145.793234,126.777182 145.793234,124.473266 L145.793234,81.36034 C145.793234,79.0559413 147.66213,77.1881761 149.967923,77.1881761 L255.032318,77.1881761 C257.33787,77.1881761 259.207008,79.0559413 259.207008,81.36034 L259.207008,124.473266 Z" id="Shape" fill="#237EE2"></path>
                <path d="M259.207008,98.7445179 C259.207008,101.048675 257.33787,102.916682 255.032318,102.916682 L149.967923,102.916682 C147.66213,102.916682 145.793234,101.048675 145.793234,98.7445179 L145.793234,55.6315921 C145.793234,53.3274349 147.66213,51.4594279 149.967923,51.4594279 L255.032318,51.4594279 C257.33787,51.4594279 259.207008,53.3274349 259.207008,55.6315921 L259.207008,98.7445179 Z" id="Shape" fill="#D2D4D6"></path>
                <path d="M259.207008,73.0157701 C259.207008,75.3199272 257.33787,77.1879346 255.032318,77.1879346 L149.967923,77.1879346 C147.66213,77.1879346 145.793234,75.3196857 145.793234,73.0157701 L145.793234,29.9028441 C145.793234,27.5984455 147.66213,25.73068 149.967923,25.73068 L255.032318,25.73068 C257.33787,25.73068 259.207008,27.5984455 259.207008,29.9028441 L259.207008,73.0157701 Z" id="Shape" fill="#237EE2"></path>
                <path d="M259.207008,47.2870223 C259.207008,49.5911794 257.33787,51.4591864 255.032318,51.4591864 L149.967923,51.4591864 C147.66213,51.4591864 145.793234,49.5911794 145.793234,47.2870223 L145.793234,4.17409613 C145.793234,1.86993904 147.66213,0.00193200469 149.967923,0.00193200469 L255.032318,0.00193200469 C257.33787,0.00193200469 259.207008,1.86993904 259.207008,4.17409613 L259.207008,47.2870223 Z" id="Shape" fill="#D2D4D6"></path>
                <path d="M259.207008,23.6445979 C259.207008,24.7965557 257.33787,25.73068 255.032318,25.73068 L149.967923,25.73068 C147.66213,25.73068 145.793234,24.7965557 145.793234,23.6445979 L145.793234,2.08801407 C145.793234,0.935573268 147.66213,0.00193200469 149.967923,0.00193200469 L255.032318,0.00193200469 C257.33787,0.00193200469 259.207008,0.935573268 259.207008,2.08801407 L259.207008,23.6445979 Z" id="Shape" fill="#237EE2"></path>
                <path d="M345.154242,203.18193 C345.154242,204.645423 343.967032,205.831674 342.502894,205.831674 L275.774069,205.831674 C274.309931,205.831674 273.122721,204.645423 273.122721,203.18193 L273.122721,175.80011 C273.122721,174.336858 274.309931,173.149641 275.774069,173.149641 L342.502894,173.149641 C343.967032,173.149641 345.154242,174.336858 345.154242,175.80011 L345.154242,203.18193 Z" id="Shape" fill="#D2D4D6"></path>
                <path d="M345.154242,186.841275 C345.154242,188.304769 343.967032,189.491261 342.502894,189.491261 L275.774069,189.491261 C274.309931,189.491261 273.122721,188.304769 273.122721,186.841275 L273.122721,159.459697 C273.122721,157.99548 274.309931,156.809953 275.774069,156.809953 L342.502894,156.809953 C343.967032,156.809953 345.154242,157.99548 345.154242,159.459697 L345.154242,186.841275 Z" id="Shape" fill="#237EE2"></path>
                <path d="M345.154242,170.500138 C345.154242,171.963632 343.967032,173.149883 342.502894,173.149883 L275.774069,173.149883 C274.309931,173.149883 273.122721,171.963632 273.122721,170.500138 L273.122721,143.118319 C273.122721,141.654825 274.309931,140.468333 275.774069,140.468333 L342.502894,140.468333 C343.967032,140.468333 345.154242,141.654825 345.154242,143.118319 L345.154242,170.500138 Z" id="Shape" fill="#D2D4D6"></path>
                <path d="M345.154242,154.16045 C345.154242,155.623219 343.967032,156.810194 342.502894,156.810194 L275.774069,156.810194 C274.309931,156.810194 273.122721,155.623219 273.122721,154.16045 L273.122721,126.777665 C273.122721,125.313447 274.309931,124.127921 275.774069,124.127921 L342.502894,124.127921 C343.967032,124.127921 345.154242,125.313447 345.154242,126.777665 L345.154242,154.16045 Z" id="Shape" fill="#237EE2"></path>
                <path d="M345.154242,137.818347 C345.154242,139.28184 343.967032,140.468333 342.502894,140.468333 L275.774069,140.468333 C274.309931,140.468333 273.122721,139.281599 273.122721,137.818347 L273.122721,110.436528 C273.122721,108.973275 274.309931,107.786783 275.774069,107.786783 L342.502894,107.786783 C343.967032,107.786783 345.154242,108.973517 345.154242,110.436528 L345.154242,137.818347 Z" id="Shape" fill="#D2D4D6"></path>
                <path d="M345.154242,121.478176 C345.154242,122.941186 343.967032,124.127921 342.502894,124.127921 L275.774069,124.127921 C274.309931,124.127921 273.122721,122.941186 273.122721,121.478176 L273.122721,94.0963565 C273.122721,92.6321382 274.309931,91.4466121 275.774069,91.4466121 L342.502894,91.4466121 C343.967032,91.4466121 345.154242,92.6323797 345.154242,94.0963565 L345.154242,121.478176 Z" id="Shape" fill="#237EE2"></path>
                <path d="M345.154242,105.137039 C345.154242,106.600291 343.967032,107.786783 342.502894,107.786783 L275.774069,107.786783 C274.309931,107.786783 273.122721,106.60005 273.122721,105.137039 L273.122721,77.7549777 C273.122721,76.2914839 274.309931,75.1052333 275.774069,75.1052333 L342.502894,75.1052333 C343.967032,75.1052333 345.154242,76.2914839 345.154242,77.7549777 L345.154242,105.137039 Z" id="Shape" fill="#D2D4D6"></path>
                <path d="M345.154242,90.1212565 C345.154242,90.8530034 343.967032,91.4463705 342.502894,91.4463705 L275.774069,91.4463705 C274.309931,91.4463705 273.122721,90.8527618 273.122721,90.1212565 L273.122721,76.4301058 C273.122721,75.6983589 274.309931,75.1052333 275.774069,75.1052333 L342.502894,75.1052333 C343.967032,75.1052333 345.154242,75.6983589 345.154242,76.4301058 L345.154242,90.1212565 Z" id="Shape" fill="#237EE2"></path>
                <path d="M404.820215,204.148898 C404.820215,205.07795 404.066035,205.831674 403.135937,205.831674 L360.754233,205.831674 C359.824135,205.831674 359.069955,205.07795 359.069955,204.148898 L359.069955,186.757716 C359.069955,185.827939 359.824135,185.074216 360.754233,185.074216 L403.135937,185.074216 C404.066035,185.074216 404.820215,185.827939 404.820215,186.757716 L404.820215,204.148898 Z" id="Shape" fill="#D2D4D6"></path>
                <path d="M404.820215,193.770652 C404.820215,194.699463 404.066035,195.453428 403.135937,195.453428 L360.754233,195.453428 C359.824135,195.453428 359.069955,194.699463 359.069955,193.770652 L359.069955,176.378745 C359.069955,175.448969 359.824135,174.695969 360.754233,174.695969 L403.135937,174.695969 C404.066035,174.695969 404.820215,175.448969 404.820215,176.378745 L404.820215,193.770652 Z" id="Shape" fill="#237EE2"></path>
                <path d="M404.820215,183.391681 C404.820215,184.320734 404.066035,185.074457 403.135937,185.074457 L360.754233,185.074457 C359.824135,185.074457 359.069955,184.320734 359.069955,183.391681 L359.069955,166.000017 C359.069955,165.070722 359.824135,164.316999 360.754233,164.316999 L403.135937,164.316999 C404.066035,164.316999 404.820215,165.070722 404.820215,166.000017 L404.820215,183.391681 Z" id="Shape" fill="#D2D4D6"></path>
                <path d="M404.820215,173.013435 C404.820215,173.942246 404.066035,174.696211 403.135937,174.696211 L360.754233,174.696211 C359.824135,174.696211 359.069955,173.942246 359.069955,173.013435 L359.069955,155.621529 C359.069955,154.691752 359.824135,153.938753 360.754233,153.938753 L403.135937,153.938753 C404.066035,153.938753 404.820215,154.691752 404.820215,155.621529 L404.820215,173.013435 Z" id="Shape" fill="#237EE2"></path>
                <path d="M404.820215,162.63374 C404.820215,163.563517 404.066035,164.317241 403.135937,164.317241 L360.754233,164.317241 C359.824135,164.317241 359.069955,163.563517 359.069955,162.63374 L359.069955,145.2428 C359.069955,144.313264 359.824135,143.55954 360.754233,143.55954 L403.135937,143.55954 C404.066035,143.55954 404.820215,144.313264 404.820215,145.2428 L404.820215,162.63374 Z" id="Shape" fill="#D2D4D6"></path>
                <path d="M404.820215,152.255494 C404.820215,153.185271 404.066035,153.938994 403.135937,153.938994 L360.754233,153.938994 C359.824135,153.938994 359.069955,153.185271 359.069955,152.255494 L359.069955,134.864312 C359.069955,133.934293 359.824135,133.181294 360.754233,133.181294 L403.135937,133.181294 C404.066035,133.181294 404.820215,133.934534 404.820215,134.864312 L404.820215,152.255494 Z" id="Shape" fill="#237EE2"></path>
                <path d="M404.820215,141.876764 C404.820215,142.805817 404.066035,143.55954 403.135937,143.55954 L360.754233,143.55954 C359.824135,143.55954 359.069955,142.805817 359.069955,141.876764 L359.069955,124.485341 C359.069955,123.555564 359.824135,122.802082 360.754233,122.802082 L403.135937,122.802082 C404.066035,122.802082 404.820215,123.555564 404.820215,124.485341 L404.820215,141.876764 Z" id="Shape" fill="#D2D4D6"></path>
                <path d="M404.820215,132.339665 C404.820215,132.804553 404.066035,133.181294 403.135937,133.181294 L360.754233,133.181294 C359.824135,133.181294 359.069955,132.804312 359.069955,132.339665 L359.069955,123.643953 C359.069955,123.179548 359.824135,122.802565 360.754233,122.802565 L403.135937,122.802565 C404.066035,122.802565 404.820215,123.179548 404.820215,123.643953 L404.820215,132.339665 Z" id="Shape" fill="#237EE2"></path>
                <path d="M59.8457577,203.18193 C59.8457577,204.645423 61.03321,205.831674 62.4971062,205.831674 L129.225931,205.831674 C130.690069,205.831674 131.877279,204.645423 131.877279,203.18193 L131.877279,175.80011 C131.877279,174.336858 130.690069,173.149641 129.225931,173.149641 L62.4971062,173.149641 C61.03321,173.149641 59.8457577,174.336858 59.8457577,175.80011 L59.8457577,203.18193 Z" id="Shape" fill="#D2D4D6"></path>
                <path d="M59.8457577,186.841275 C59.8457577,188.304769 61.03321,189.491261 62.4971062,189.491261 L129.225931,189.491261 C130.690069,189.491261 131.877279,188.304769 131.877279,186.841275 L131.877279,159.459697 C131.877279,157.99548 130.690069,156.809953 129.225931,156.809953 L62.4971062,156.809953 C61.03321,156.809953 59.8457577,157.99548 59.8457577,159.459697 L59.8457577,186.841275 Z" id="Shape" fill="#237EE2"></path>
                <path d="M59.8457577,170.500138 C59.8457577,171.963632 61.03321,173.149883 62.4971062,173.149883 L129.225931,173.149883 C130.690069,173.149883 131.877279,171.963632 131.877279,170.500138 L131.877279,143.118319 C131.877279,141.654825 130.690069,140.468333 129.225931,140.468333 L62.4971062,140.468333 C61.03321,140.468333 59.8457577,141.654825 59.8457577,143.118319 L59.8457577,170.500138 Z" id="Shape" fill="#D2D4D6"></path>
                <path d="M59.8457577,154.16045 C59.8457577,155.623219 61.03321,156.810194 62.4971062,156.810194 L129.225931,156.810194 C130.690069,156.810194 131.877279,155.623219 131.877279,154.16045 L131.877279,126.777665 C131.877279,125.313447 130.690069,124.127921 129.225931,124.127921 L62.4971062,124.127921 C61.03321,124.127921 59.8457577,125.313447 59.8457577,126.777665 L59.8457577,154.16045 Z" id="Shape" fill="#237EE2"></path>
                <path d="M59.8457577,137.818347 C59.8457577,139.28184 61.03321,140.468333 62.4971062,140.468333 L129.225931,140.468333 C130.690069,140.468333 131.877279,139.281599 131.877279,137.818347 L131.877279,110.436528 C131.877279,108.973275 130.690069,107.786783 129.225931,107.786783 L62.4971062,107.786783 C61.03321,107.786783 59.8457577,108.973517 59.8457577,110.436528 L59.8457577,137.818347 Z" id="Shape" fill="#D2D4D6"></path>
                <path d="M59.8457577,121.478176 C59.8457577,122.941186 61.03321,124.127921 62.4971062,124.127921 L129.225931,124.127921 C130.690069,124.127921 131.877279,122.941186 131.877279,121.478176 L131.877279,94.0963565 C131.877279,92.6321382 130.690069,91.4466121 129.225931,91.4466121 L62.4971062,91.4466121 C61.03321,91.4466121 59.8457577,92.6323797 59.8457577,94.0963565 L59.8457577,121.478176 Z" id="Shape" fill="#237EE2"></path>
                <path d="M59.8457577,105.137039 C59.8457577,106.600291 61.03321,107.786783 62.4971062,107.786783 L129.225931,107.786783 C130.690069,107.786783 131.877279,106.60005 131.877279,105.137039 L131.877279,77.7549777 C131.877279,76.2914839 130.690069,75.1052333 129.225931,75.1052333 L62.4971062,75.1052333 C61.03321,75.1052333 59.8457577,76.2914839 59.8457577,77.7549777 L59.8457577,105.137039 Z" id="Shape" fill="#D2D4D6"></path>
                <path d="M59.8457577,90.1212565 C59.8457577,90.8530034 61.03321,91.4463705 62.4971062,91.4463705 L129.225931,91.4463705 C130.690069,91.4463705 131.877279,90.8527618 131.877279,90.1212565 L131.877279,76.4301058 C131.877279,75.6983589 130.690069,75.1052333 129.225931,75.1052333 L62.4971062,75.1052333 C61.03321,75.1052333 59.8457577,75.6983589 59.8457577,76.4301058 L59.8457577,90.1212565 Z" id="Shape" fill="#237EE2"></path>
                <path d="M0.18002685,204.148898 C0.18002685,205.07795 0.934206446,205.831674 1.86406324,205.831674 L44.2457667,205.831674 C45.1756235,205.831674 45.9298031,205.07795 45.9298031,204.148898 L45.9298031,186.757716 C45.9298031,185.827939 45.1756235,185.074216 44.2457667,185.074216 L1.86406324,185.074216 C0.934206446,185.074216 0.18002685,185.827939 0.18002685,186.757716 L0.18002685,204.148898 Z" id="Shape" fill="#D2D4D6"></path>
                <path d="M0.18002685,193.770652 C0.18002685,194.699463 0.934206446,195.453428 1.86406324,195.453428 L44.2457667,195.453428 C45.1756235,195.453428 45.9298031,194.699463 45.9298031,193.770652 L45.9298031,176.378745 C45.9298031,175.448969 45.1756235,174.695969 44.2457667,174.695969 L1.86406324,174.695969 C0.934206446,174.695969 0.18002685,175.448969 0.18002685,176.378745 L0.18002685,193.770652 Z" id="Shape" fill="#237EE2"></path>
                <path d="M0.18002685,183.391681 C0.18002685,184.320734 0.934206446,185.074457 1.86406324,185.074457 L44.2457667,185.074457 C45.1756235,185.074457 45.9298031,184.320734 45.9298031,183.391681 L45.9298031,166.000017 C45.9298031,165.070722 45.1756235,164.316999 44.2457667,164.316999 L1.86406324,164.316999 C0.934206446,164.316999 0.18002685,165.070722 0.18002685,166.000017 L0.18002685,183.391681 Z" id="Shape" fill="#D2D4D6"></path>
                <path d="M0.18002685,173.013435 C0.18002685,173.942246 0.934206446,174.696211 1.86406324,174.696211 L44.2457667,174.696211 C45.1756235,174.696211 45.9298031,173.942246 45.9298031,173.013435 L45.9298031,155.621529 C45.9298031,154.691752 45.1756235,153.938753 44.2457667,153.938753 L1.86406324,153.938753 C0.934206446,153.938753 0.18002685,154.691752 0.18002685,155.621529 L0.18002685,173.013435 Z" id="Shape" fill="#237EE2"></path>
                <path d="M0.18002685,162.63374 C0.18002685,163.563517 0.934206446,164.317241 1.86406324,164.317241 L44.2457667,164.317241 C45.1756235,164.317241 45.9298031,163.563517 45.9298031,162.63374 L45.9298031,145.2428 C45.9298031,144.313264 45.1756235,143.55954 44.2457667,143.55954 L1.86406324,143.55954 C0.934206446,143.55954 0.18002685,144.313264 0.18002685,145.2428 L0.18002685,162.63374 Z" id="Shape" fill="#D2D4D6"></path>
                <path d="M0.18002685,152.255494 C0.18002685,153.185271 0.934206446,153.938994 1.86406324,153.938994 L44.2457667,153.938994 C45.1756235,153.938994 45.9298031,153.185271 45.9298031,152.255494 L45.9298031,134.864312 C45.9298031,133.934293 45.1756235,133.181294 44.2457667,133.181294 L1.86406324,133.181294 C0.934206446,133.181294 0.18002685,133.934534 0.18002685,134.864312 L0.18002685,152.255494 Z" id="Shape" fill="#237EE2"></path>
                <path d="M0.18002685,141.876764 C0.18002685,142.805817 0.934206446,143.55954 1.86406324,143.55954 L44.2457667,143.55954 C45.1756235,143.55954 45.9298031,142.805817 45.9298031,141.876764 L45.9298031,124.485341 C45.9298031,123.555564 45.1756235,122.802082 44.2457667,122.802082 L1.86406324,122.802082 C0.934206446,122.802082 0.18002685,123.555564 0.18002685,124.485341 L0.18002685,141.876764 Z" id="Shape" fill="#D2D4D6"></path>
                <path d="M0.18002685,132.339665 C0.18002685,132.804553 0.934206446,133.181294 1.86406324,133.181294 L44.2457667,133.181294 C45.1756235,133.181294 45.9298031,132.804312 45.9298031,132.339665 L45.9298031,123.643953 C45.9298031,123.179548 45.1756235,122.802565 44.2457667,122.802565 L1.86406324,122.802565 C0.934206446,122.802565 0.18002685,123.179548 0.18002685,123.643953 L0.18002685,132.339665 Z" id="Shape" fill="#237EE2"></path>
            </g>
            <g transform="translate(0.000000, 219.000000)" fill="#000000">
                <path d="M29.9171407,24.3675152 C29.9171407,35.8189091 26.0280595,39.998303 15.387192,39.998303 C4.15206879,39.998303 0.100852156,35.8191515 0.100852156,24.3675152 L0.100852156,1.84460606 L8.3111345,1.84460606 L8.3111345,24.3675152 C8.3111345,31.2598788 9.93152461,33.3224243 15.0091171,33.3224243 C19.9786191,33.3224243 21.6530544,31.2596364 21.6530544,24.3675152 L21.6530544,1.84460606 L29.9173819,1.84460606 L29.9173819,24.3675152 L29.9171407,24.3675152 Z" id="Shape"></path>
                <path d="M59.0296355,12.8077575 L58.4891838,17.9631515 C55.086268,17.9093334 51.5752618,17.8547879 48.2263912,17.8547879 C44.0673255,17.8547879 43.0947536,17.8547879 43.0947536,19.6455757 C43.0947536,21.2741818 44.0673255,21.328 46.606001,22.033697 L53.4118326,23.8787879 C57.9492146,25.1815757 60.0017248,27.0266666 60.0017248,31.694303 C60.0017248,38.3158788 56.3826283,39.8899394 47.7942711,39.8899394 C45.7955647,39.8899394 40.9881982,39.8353939 35.8568018,38.9670303 L36.3429671,33.7568485 C38.2878696,33.8652121 42.0145739,33.8652121 45.5796252,33.8652121 C51.0352926,33.8652121 52.2773665,33.5939394 52.2773665,31.8572121 C52.2773665,30.2293334 51.1429004,30.1202425 48.4963757,29.3607273 L41.8524384,27.5692121 C36.7750873,26.1044848 35.3706366,23.6620606 35.3706366,19.4288485 C35.3706366,13.838303 38.3954774,11.7764848 46.7136088,11.7764848 C50.5493686,11.8300606 55.7345688,12.2104243 59.0296355,12.8077575 Z" id="Shape"></path>
                <path d="M88.7361451,32.9427879 L89.4922945,37.9355152 C86.3596046,39.4557575 81.6600875,39.9437575 77.8793378,39.9437575 C67.7784395,39.9437575 63.9974487,35.8189091 63.9974487,25.9413334 C63.9974487,15.3585455 67.8865299,11.7762425 77.5548257,11.7762425 C86.6295896,11.7762425 90.1405953,14.9779394 90.1943997,21.1110303 C90.1943997,25.9958788 87.8719047,28.6007273 82.0922077,28.6007273 L72.4774744,28.6007273 C73.017926,32.6710303 74.746165,33.5393939 78.7973819,33.5393939 C81.2279673,33.5393939 85.1170484,33.3224243 88.7361451,32.9427879 Z M72.3158215,23.7704243 L79.8780441,23.7704243 C82.0386451,23.7704243 82.3624332,22.5224243 82.3624332,21.0026666 C82.3624332,18.505697 81.2822539,17.6373334 77.8252923,17.6373334 C73.8281209,17.5832727 72.5320021,18.7231515 72.3158215,23.7704243 Z" id="Shape"></path>
                <path d="M113.689815,19.2111515 L111.529215,19.2111515 C109.20672,19.2111515 106.991833,19.8084848 103.372736,21.0564848 L103.372736,39.2926061 L95.3786344,39.2926061 L95.3786344,12.5357575 L101.590452,12.5357575 L102.292798,16.4981818 C105.857608,13.4586666 109.638357,11.7762425 113.095318,11.7762425 L114.50001,11.7762425 L113.689815,19.2111515 Z" id="Shape"></path>
                <path d="M149.17578,20.5684848 C149.17578,35.3844848 145.016715,39.7808485 133.295426,39.7808485 C127.678106,39.7808485 123.086679,39.5638788 118.819282,39.2926061 L118.819282,1.84436364 C123.086679,1.57309091 127.623578,1.35539394 133.295426,1.35539394 C145.016715,1.35563636 149.17578,5.75175757 149.17578,20.5684848 Z M140.533137,20.5684848 C140.533137,10.7452121 138.858942,7.81454548 133.295185,7.81454548 C130.918645,7.81454548 128.919938,7.86860606 127.029563,7.86860606 L127.029563,33.214303 C128.919938,33.214303 131.026494,33.2683636 133.295185,33.2683636 C138.858942,33.2678788 140.533137,30.392 140.533137,20.5684848 Z" id="Shape"></path>
                <path d="M178.666109,32.9427879 L179.4225,37.9355152 C176.289569,39.4557575 171.590292,39.9437575 167.80906,39.9437575 C157.708645,39.9437575 153.927171,35.8189091 153.927171,25.9413334 C153.927171,15.3585455 157.816252,11.7762425 167.485031,11.7762425 C176.559312,11.7762425 180.07056,14.9779394 180.124605,21.1110303 C180.124605,25.9958788 177.80211,28.6007273 172.022413,28.6007273 L162.40768,28.6007273 C162.947649,32.6710303 164.676371,33.5393939 168.727105,33.5393939 C171.158173,33.5393939 175.047254,33.3224243 178.666109,32.9427879 Z M162.245544,23.7704243 L169.807767,23.7704243 C171.968127,23.7704243 172.292398,22.5224243 172.292398,21.0026666 C172.292398,18.505697 171.211977,17.6373334 167.755016,17.6373334 C163.758085,17.5832727 162.461725,18.7231515 162.245544,23.7704243 Z" id="Shape"></path>
                <path d="M199.298336,6.07733334 C196.597526,6.07733334 195.733285,7.00048484 195.733285,9.55127271 L195.733285,12.5357575 L203.079327,12.5357575 L203.079327,17.9093334 L195.733285,17.9093334 L195.733285,39.2926061 L187.685139,39.2926061 L187.685139,17.9093334 L183.039908,17.9093334 L183.039908,12.8077575 L187.685139,12.5357575 L187.685139,8.46545452 C187.685139,3.472 190.007875,0.216 196.435632,0.216 C198.380534,0.216 202.701735,0.324848485 205.078275,0.759272729 L204.322125,6.07757575 L199.298336,6.07757575 L199.298336,6.07733334 Z" id="Shape"></path>
                <path d="M231.327824,21.6 L231.327824,39.2926061 L225.008157,39.2926061 L224.198203,35.2215757 C222.307346,37.4472727 219.066324,39.9437575 214.367289,39.9437575 C209.397787,39.9437575 205.670842,37.2300606 205.670842,32.2373334 L205.670842,29.5238788 C205.670842,25.2358788 208.749969,22.7398788 213.82732,22.7398788 L223.333722,22.7398788 L223.333722,21.5454545 C223.279676,18.832 222.361632,18.0717575 218.958475,18.0717575 C216.420041,18.0717575 211.99075,18.2346666 207.723352,18.5059394 L206.967202,13.0792727 C210.856283,12.3735757 217.122146,11.7764848 220.849091,11.7764848 C227.708727,11.7762425 231.327824,14.0557575 231.327824,21.6 Z M213.556853,31.1515152 C213.556853,33.0511515 214.529184,33.9197575 216.689784,33.9197575 C218.526114,33.9197575 221.065031,33.0511515 223.333481,31.3144243 L223.333481,27.5692121 L216.149815,27.5692121 C214.204913,27.624 213.556853,28.6007273 213.556853,30.12 L213.556853,31.1515152 Z" id="Shape"></path>
                <path d="M262.924708,39.2926061 L256.6048,39.2926061 L256.010785,35.6019394 C252.337644,38.5869091 248.826879,39.9980606 244.991602,39.9980606 C240.0221,39.9980606 237.483424,37.5010909 237.483424,32.5624243 L237.483424,12.5355152 L245.477767,12.5357575 L245.477767,30.12 C245.423722,32.4540606 246.179872,33.2678788 248.340472,33.2678788 C250.285134,33.2678788 252.17575,32.5624243 254.984169,31.0429091 L254.984169,12.5355152 L262.924708,12.5355152 L262.924708,39.2926061 Z" id="Shape"></path>
                <path d="M277.507254,30.5541818 C277.507254,32.3995152 278.533388,33.2678788 280.532095,33.2678788 L282.692454,33.2678788 L283.610981,38.8584243 C282.260334,39.5638788 278.96575,39.9437575 277.237269,39.9437575 C272.537752,39.9437575 269.566956,37.2843636 269.566956,32.5626666 L269.566956,1.30206061 L277.507254,1.30206061 L277.507254,30.5541818 Z" id="Shape"></path>
                <path d="M296.89789,30.5541818 C296.89789,32.5624243 297.65404,33.2678788 299.814882,33.2678788 L303.217556,33.2678788 L304.082038,38.8584243 C302.083814,39.5638788 298.464718,39.9437575 296.574102,39.9437575 C291.766735,39.9437575 288.958075,37.1214545 288.958075,32.2373334 L288.958075,17.9093334 L284.258558,17.9093334 L284.258558,12.8077575 L288.958075,12.5357575 L288.958075,5.04606061 L296.898132,5.04606061 L296.898132,12.5357575 L304.298218,12.5357575 L304.298218,17.9093334 L296.898132,17.9093334 L296.898132,30.5541818 L296.89789,30.5541818 Z" id="Shape"></path>
                <path d="M331.088218,12.8077575 L330.54825,17.9631515 C327.145334,17.9093334 323.634327,17.8547879 320.285216,17.8547879 C316.12615,17.8547879 315.153819,17.8547879 315.153819,19.6455757 C315.153819,21.2741818 316.125909,21.328 318.664826,22.033697 L325.470898,23.8787879 C330.008039,25.1815757 332.060549,27.0266666 332.060549,31.694303 C332.060549,38.3158788 328.441935,39.8899394 319.853095,39.8899394 C317.854872,39.8899394 313.047505,39.8353939 307.916109,38.9670303 L308.402274,33.7568485 C310.346694,33.8652121 314.073639,33.8652121 317.638691,33.8652121 C323.093876,33.8652121 324.336674,33.5939394 324.336674,31.8572121 C324.336674,30.2293334 323.202208,30.1202425 320.5552,29.3607273 L313.911745,27.5692121 C308.834394,26.1044848 307.429702,23.6620606 307.429702,19.4288485 C307.429702,13.838303 310.454784,11.7764848 318.773157,11.7764848 C322.607711,11.8300606 327.793393,12.2104243 331.088218,12.8077575 Z" id="Shape"></path>
                <path d="M362.036802,2.60436364 L361.497074,8.24848484 C358.363901,8.13963639 353.772957,8.08557574 349.82959,8.08557574 C345.8329,8.08557574 344.428208,8.30254548 344.428208,11.5047273 C344.428208,14.1093334 345.508871,14.8147879 348.317289,15.7379394 L355.393347,18.1803636 C361.334697,20.2967273 363.2796,23.7161212 363.2796,29.1973334 C363.2796,37.7180606 359.606458,39.9978182 349.451755,39.9978182 C347.074733,39.9978182 342.375698,39.8349091 336.649805,38.5869091 L337.13597,32.6167273 C344.049892,32.7796364 347.074733,32.888 349.451755,32.888 C353.772957,32.888 354.961227,32.2909091 354.961227,29.2521212 C354.961227,26.592 353.93461,25.9410909 351.449979,25.1270303 L343.942043,22.4671515 C338.270437,20.4050909 336.217685,17.0402425 336.217685,11.5044848 C336.217685,2.9289697 340.160811,1.13818182 349.775303,1.13818182 C353.448686,1.13866666 357.877736,1.40993939 362.036802,2.60436364 Z" id="Shape"></path>
                <path d="M378.726145,30.5541818 C378.726145,32.5624243 379.482294,33.2678788 381.642895,33.2678788 L385.045811,33.2678788 L385.910051,38.8584243 C383.911827,39.5638788 380.292731,39.9437575 378.402356,39.9437575 C373.594748,39.9437575 370.786329,37.1214545 370.786329,32.2373334 L370.786329,17.9093334 L366.086571,17.9093334 L366.086571,12.8077575 L370.786329,12.5357575 L370.786329,5.04606061 L378.726386,5.04606061 L378.726386,12.5357575 L386.126232,12.5357575 L386.126232,17.9093334 L378.726386,17.9093334 L378.726386,30.5541818 L378.726145,30.5541818 Z" id="Shape"></path>
                <path d="M416.805555,25.9413334 C416.805555,36.1990303 413.078609,39.9980606 403.139605,39.9980606 C393.146797,39.9980606 389.419851,36.1990303 389.419851,25.9413334 C389.419851,15.6298182 393.146797,11.7762425 403.139605,11.7762425 C413.078609,11.7762425 416.805555,15.6298182 416.805555,25.9413334 Z M397.792269,25.9413334 C397.792269,32.345697 398.926494,33.9735757 403.139846,33.9735757 C407.244866,33.9735757 408.433378,32.345697 408.433378,25.9413334 C408.433378,19.4288485 407.244625,17.8002425 403.139846,17.8002425 C398.926494,17.8002425 397.792269,19.4288485 397.792269,25.9413334 Z" id="Shape"></path>
                <path d="M440.570231,19.2111515 L438.409389,19.2111515 C436.086894,19.2111515 433.872007,19.8084848 430.253393,21.0564848 L430.253393,39.2926061 L422.25905,39.2926061 L422.25905,12.5357575 L428.470627,12.5357575 L429.172731,16.4981818 C432.737782,13.4586666 436.518773,11.7762425 439.975734,11.7762425 L441.379944,11.7762425 L440.570231,19.2111515 Z" id="Shape"></path>
                <path d="M468.440652,32.9427879 L469.197284,37.9355152 C466.064353,39.4557575 461.365077,39.9437575 457.583845,39.9437575 C447.483429,39.9437575 443.701956,35.8189091 443.701956,25.9413334 C443.701956,15.3585455 447.591037,11.7762425 457.259815,11.7762425 C466.334097,11.7762425 469.845344,14.9779394 469.899389,21.1110303 C469.899389,25.9958788 467.576653,28.6007273 461.797197,28.6007273 L452.182464,28.6007273 C452.722433,32.6710303 454.450914,33.5393939 458.501889,33.5393939 C460.932957,33.5393939 464.822038,33.3224243 468.440652,32.9427879 Z M452.020087,23.7704243 L459.58231,23.7704243 C461.74291,23.7704243 462.067182,22.5224243 462.067182,21.0026666 C462.067182,18.505697 460.986761,17.6373334 457.5298,17.6373334 C453.53287,17.5832727 452.236509,18.7231515 452.020087,23.7704243 Z" id="Shape"></path>
            </g>
        </g>
    </g>
</svg>