<?xml version="1.0" encoding="UTF-8"?>
<svg width="750px" height="300px" viewBox="0 0 750 300" version="1.1" xmlns="http://www.w3.org/2000/svg" xmlns:xlink="http://www.w3.org/1999/xlink">
    <!-- Generator: Sketch 51 (57462) - http://www.bohemiancoding.com/sketch -->
    <title>logo</title>
    <desc>Created with Sketch.</desc>
    <defs>
        <polygon id="path-1" points="0.0322265625 0.388616239 275 0.388616239 275 109.370243 0.0322265625 109.370243"></polygon>
        <polygon id="path-3" points="0.0322265625 0.185183153 275 0.185183153 275 147.072997 0.0322265625 147.072997"></polygon>
    </defs>
    <g id="logo" stroke="none" stroke-width="1" fill="none" fill-rule="evenodd">
        <g id="Group-2" transform="translate(173.000000, 18.000000)">
            <g id="office-material" transform="translate(64.000000, 0.000000)">
                <path d="M68.499707,5.46102433 L61.6381348,19.1753129 L113.793066,19.1753129 L106.930957,5.46102433 C105.325,2.25010949 102.04165,0.222219783 98.4494629,0.222219783 L76.9812012,0.222219783 C73.3895508,0.222219783 70.1062012,2.25010949 68.499707,5.46102433" id="Fill-1" fill="#E3E9F0"></path>
                <path d="M213.361865,85.5122122 L61.6381348,85.5122122 C59.0197266,85.5122122 56.8965332,83.3903891 56.8965332,80.7736706 L56.8965332,14.437308 C56.8965332,11.8205895 59.0197266,9.69876633 61.6381348,9.69876633 L213.361865,9.69876633 C215.980273,9.69876633 218.103467,11.8205895 218.103467,14.437308 L218.103467,80.7736706 C218.103467,83.3903891 215.980273,85.5122122 213.361865,85.5122122" id="Fill-2" fill="#F2F4F7"></path>
                <g id="Group-6" transform="translate(0.000000, 18.786697)">
                    <mask id="mask-2" fill="white">
                        <use xlink:href="#path-1"></use>
                    </mask>
                    <g id="Clip-4"></g>
                    <path d="M222.845068,76.2020622 L52.1549316,76.2020622 C49.5365234,76.2020622 47.4138672,74.080239 47.4138672,71.4635205 L47.4138672,5.12715789 C47.4138672,2.51043943 49.5365234,0.388616239 52.1549316,0.388616239 L222.845068,0.388616239 C225.463477,0.388616239 227.586133,2.51043943 227.586133,5.12715789 L227.586133,71.4635205 C227.586133,74.080239 225.463477,76.2020622 222.845068,76.2020622" id="Fill-3" fill="#E3E9F0" mask="url(#mask-2)"></path>
                    <path d="M273.806543,83.5320944 L252.648193,45.4707838 C251.811914,43.9667745 250.225293,43.0338809 248.50332,43.0338809 L26.4966797,43.0338809 C24.774707,43.0338809 23.1880859,43.9667745 22.3518066,45.4707838 L1.19345703,83.5320944 C0.410888672,84.9400231 0,86.5240101 0,88.1342983 L0,109.370243 L275,109.370243 L275,88.1342983 C275,86.5240101 274.589111,84.9400231 273.806543,83.5320944" id="Fill-5" fill="#DABE97" mask="url(#mask-2)"></path>
                </g>
                <path d="M59.017041,24.4141174 L52.1549316,38.1289427 L110.171338,38.1289427 L103.309229,24.4141174 C101.703271,21.2037394 98.4193848,19.1753129 94.8277344,19.1753129 L67.4990723,19.1753129 C63.9068848,19.1753129 60.6235352,21.2037394 59.017041,24.4141174" id="Fill-7" fill="#C3CAD7"></path>
                <path d="M222.845068,104.465305 L52.1549316,104.465305 C49.5365234,104.465305 47.4138672,102.343482 47.4138672,99.7267637 L47.4138672,33.3904011 C47.4138672,30.7736826 49.5365234,28.6523962 52.1549316,28.6523962 L222.845068,28.6523962 C225.463477,28.6523962 227.586133,30.7736826 227.586133,33.3904011 L227.586133,99.7267637 C227.586133,102.343482 225.463477,104.465305 222.845068,104.465305" id="Fill-8" fill="#F2F4F7"></path>
                <path d="M232.327734,113.941852 L42.6722656,113.941852 C40.0538574,113.941852 37.9312012,111.820565 37.9312012,109.20331 L37.9312012,42.8669476 C37.9312012,40.2502292 40.0538574,38.1289427 42.6722656,38.1289427 L232.327734,38.1289427 C234.946143,38.1289427 237.068799,40.2502292 237.068799,42.8669476 L237.068799,109.20331 C237.068799,111.820565 234.946143,113.941852 232.327734,113.941852" id="Fill-9" fill="#C3CAD7"></path>
                <path d="M49.534375,43.3677473 L42.6722656,57.0820358 L113.793066,57.0820358 L106.930957,43.3677473 C105.325,40.1568325 102.04165,38.1289427 98.4494629,38.1289427 L58.0158691,38.1289427 C54.4236816,38.1289427 51.140332,40.1568325 49.534375,43.3677473" id="Fill-10" fill="#989FB0"></path>
                <path d="M232.327734,123.418398 L42.6722656,123.418398 C40.0538574,123.418398 37.9312012,121.297112 37.9312012,118.680394 L37.9312012,52.3434942 C37.9312012,49.7267757 40.0538574,47.6054893 42.6722656,47.6054893 L232.327734,47.6054893 C234.946143,47.6054893 237.068799,49.7267757 237.068799,52.3434942 L237.068799,118.680394 C237.068799,121.297112 234.946143,123.418398 232.327734,123.418398" id="Fill-11" fill="#F2F4F7"></path>
                <g id="Group-15" transform="translate(0.000000, 56.896853)">
                    <mask id="mask-4" fill="white">
                        <use xlink:href="#path-3"></use>
                    </mask>
                    <g id="Clip-13"></g>
                    <path d="M241.8104,75.9980923 L33.1895996,75.9980923 C30.5711914,75.9980923 28.4485352,73.8768059 28.4485352,71.2600874 L28.4485352,4.92372481 C28.4485352,2.30700635 30.5711914,0.185183153 33.1895996,0.185183153 L241.8104,0.185183153 C244.428809,0.185183153 246.551465,2.30700635 246.551465,4.92372481 L246.551465,71.2600874 C246.551465,73.8768059 244.428809,75.9980923 241.8104,75.9980923" id="Fill-12" fill="#878E9D" mask="url(#mask-4)"></path>
                    <path d="M270.258398,47.5684527 L192.5854,47.5684527 C190.789307,47.5684527 189.1479,48.5823975 188.344922,50.1873182 L182.793896,61.2827412 C181.187939,64.493656 177.903516,66.5215458 174.311865,66.5215458 L100.688672,66.5215458 C97.0970215,66.5215458 93.8131348,64.493656 92.2066406,61.2827412 L86.6556152,50.1873182 C85.8526367,48.5823975 84.2112305,47.5684527 82.4151367,47.5684527 L4.74160156,47.5684527 C2.12319336,47.5684527 0,49.6897391 0,52.3064576 L0,142.334992 C0,144.95171 2.12319336,147.072997 4.74160156,147.072997 L270.258398,147.072997 C272.876807,147.072997 275,144.95171 275,142.334992 L275,52.3064576 C275,49.6897391 272.876807,47.5684527 270.258398,47.5684527" id="Fill-14" fill="#E7CEA9" mask="url(#mask-4)"></path>
                </g>
                <path d="M175.431201,94.9887588 L232.327734,94.9887588 C234.946143,94.9887588 237.068799,92.8669356 237.068799,90.2502171 L237.068799,71.297124 C237.068799,68.6804056 234.946143,66.5585824 232.327734,66.5585824 L175.431201,66.5585824 C172.812793,66.5585824 170.6896,68.6804056 170.6896,71.297124 L170.6896,90.2502171 C170.6896,92.8669356 172.812793,94.9887588 175.431201,94.9887588" id="Fill-16" fill="#F2F4F7"></path>
                <path d="M203.879199,76.0351289 L184.913867,76.0351289 C182.295459,76.0351289 180.172266,78.1569521 180.172266,80.7736706 C180.172266,83.3903891 182.295459,85.5122122 184.913867,85.5122122 L203.879199,85.5122122 C206.497607,85.5122122 208.620801,83.3903891 208.620801,80.7736706 C208.620801,78.1564154 206.497607,76.0351289 203.879199,76.0351289" id="Fill-17" fill="#6B6D7B"></path>
                <path d="M222.845068,76.0351289 L218.103467,76.0351289 C215.485059,76.0351289 213.361865,78.1569521 213.361865,80.7736706 C213.361865,83.3903891 215.485059,85.5122122 218.103467,85.5122122 L222.845068,85.5122122 C225.463477,85.5122122 227.586133,83.3903891 227.586133,80.7736706 C227.586133,78.1569521 225.463477,76.0351289 222.845068,76.0351289" id="Fill-18" fill="#878E9D"></path>
            </g>
            <g id="Group" transform="translate(0.000000, 228.000000)">
                <path d="M25.1232065,1.78909091 L25.1232065,22.1410909 C25.1232065,31.8370909 21.8788043,35.5330909 13.0172283,35.5330909 C3.8651087,35.5330909 0.523858696,31.8370909 0.523858696,22.1410909 L0.523858696,1.78909091 L5.36625,1.78909091 L5.36625,22.1410909 C5.36625,28.9570909 7.25478261,31.2610909 12.8235326,31.2610909 C18.2954348,31.2610909 20.2808152,28.9570909 20.2808152,22.1410909 L20.2808152,1.78909091 L25.1232065,1.78909091 Z" id="Path" fill="#6B6D7B"></path>
                <path d="M40.6188587,10.8610909 C43.7179891,10.9090909 47.7855978,11.1970909 50.6910326,11.6770909 L50.3036413,15.0370909 C47.3497826,14.9410909 44.2990761,14.7970909 41.3452174,14.7970909 C37.132337,14.7970909 35.8248913,14.8450909 35.8248913,17.3890909 C35.8248913,19.6450909 36.9386413,19.8370909 39.1661413,20.4610909 L45.8486413,22.0930909 C49.6741304,23.1010909 51.3689674,24.5890909 51.3689674,28.6690909 C51.3689674,34.4290909 48.1729891,35.4370909 41.1030978,35.4370909 C39.5051087,35.4370909 35.8248913,35.3890909 31.7088587,34.7650909 L32.0478261,31.3090909 C34.2269022,31.5010909 37.083913,31.5490909 40.1346196,31.5490909 C45.3159783,31.5490909 46.8171196,31.0690909 46.8171196,28.6690909 C46.8171196,26.5090909 45.46125,26.2690909 43.23375,25.6930909 L36.6480978,24.0610909 C32.7257609,23.0530909 31.2730435,21.2290909 31.2730435,17.3890909 C31.2730435,12.0610909 34.0332065,10.8130909 40.6188587,10.8610909 Z" id="Path" fill="#9AA2B1"></path>
                <path d="M68.1236413,31.5970909 C70.544837,31.5970909 73.837663,31.3090909 76.4041304,31.0210909 L76.8399457,34.0930909 C74.5155978,35.1010909 70.3027174,35.4850909 67.4941304,35.4850909 C59.2620652,35.4850909 56.1145109,32.1730909 56.1145109,23.1490909 C56.1145109,13.8850909 59.407337,10.8610909 67.0583152,10.8610909 C74.41875,10.8610909 77.4210326,13.5970909 77.4210326,18.7330909 C77.4210326,22.9570909 75.6293478,25.4530909 71.658587,25.4530909 L61.05375,25.4530909 C61.5379891,30.5410909 63.5717935,31.5970909 68.1236413,31.5970909 Z M67.3004348,14.7970909 C62.700163,14.7970909 61.1505978,16.2850909 60.9569022,21.8530909 L70.3995652,21.8530909 C72.3849457,21.8530909 72.723913,20.1730909 72.723913,18.7330909 C72.6754891,15.9010909 71.3196196,14.7970909 67.3004348,14.7970909 Z" id="Combined-Shape" fill="#9AA2B1"></path>
                <path d="M98.4854348,10.8610909 L97.9527717,15.2290909 L96.5000543,15.2290909 C93.9820109,15.2290909 91.657663,16.2370909 88.0258696,17.9170909 L88.0258696,34.9090909 L83.32875,34.9090909 L83.32875,11.4850909 L86.9605435,11.4850909 L87.4447826,15.0850909 C90.7860326,12.4450909 94.2241304,10.8610909 97.3716848,10.8610909 L98.4854348,10.8610909 Z" id="Path" fill="#9AA2B1"></path>
                <path d="M115.38538,1.35709091 C125.118587,1.35709091 128.605109,5.48509091 128.605109,18.3490909 C128.605109,31.2130909 125.118587,35.3410909 115.38538,35.3410909 C110.736685,35.3410909 106.862772,35.1490909 103.327826,34.9090909 L103.327826,1.78909091 C106.862772,1.54909091 110.688261,1.35709091 115.38538,1.35709091 Z M115.38538,31.1650909 C121.486793,31.1650909 123.472174,27.9970909 123.472174,18.3490909 C123.472174,8.70109091 121.486793,5.53309091 115.38538,5.53309091 C112.625217,5.53309091 110.30087,5.58109091 108.170217,5.62909091 L108.170217,31.0690909 C110.252446,31.1170909 112.673641,31.1650909 115.38538,31.1650909 Z" id="Combined-Shape" fill="#6B6D7B"></path>
                <path d="M145.989293,31.5970909 C148.410489,31.5970909 151.703315,31.3090909 154.269783,31.0210909 L154.705598,34.0930909 C152.38125,35.1010909 148.16837,35.4850909 145.359783,35.4850909 C137.127717,35.4850909 133.980163,32.1730909 133.980163,23.1490909 C133.980163,13.8850909 137.272989,10.8610909 144.923967,10.8610909 C152.284402,10.8610909 155.286685,13.5970909 155.286685,18.7330909 C155.286685,22.9570909 153.495,25.4530909 149.524239,25.4530909 L138.919402,25.4530909 C139.403641,30.5410909 141.437446,31.5970909 145.989293,31.5970909 Z M145.166087,14.7970909 C140.565815,14.7970909 139.01625,16.2850909 138.822554,21.8530909 L148.265217,21.8530909 C150.250598,21.8530909 150.589565,20.1730909 150.589565,18.7330909 C150.541141,15.9010909 149.185272,14.7970909 145.166087,14.7970909 Z" id="Combined-Shape" fill="#9AA2B1"></path>
                <path d="M176.593207,4.28509091 L171.799239,4.28509091 C168.84538,4.28509091 167.828478,5.29309091 167.828478,7.93309091 L167.828478,11.4850909 L175.140489,11.4850909 L175.140489,15.0850909 L167.828478,15.0850909 L167.828478,34.9090909 L163.131359,34.9090909 L163.131359,15.0850909 L158.870054,15.0850909 L158.870054,11.7250909 L163.131359,11.4850909 L163.131359,7.40509091 C163.131359,3.03709091 164.971467,0.493090909 170.152826,0.493090909 C171.702391,0.493090909 175.043641,0.541090909 176.980598,0.829090909 L176.593207,4.28509091 Z" id="Path" fill="#9AA2B1"></path>
                <path d="M191.071957,10.8610909 C196.543859,10.8610909 199.449293,12.6850909 199.449293,18.5890909 L199.449293,34.9090909 L195.769076,34.9090909 L195.236413,31.2130909 C193.493152,32.9890909 190.103478,35.3410909 185.79375,35.3410909 C181.484022,35.3410909 178.578587,32.9890909 178.578587,28.7170909 L178.578587,26.2690909 C178.578587,22.5250909 180.999783,20.4130909 185.261087,20.4130909 L194.752174,20.4130909 L194.752174,18.5890909 C194.70375,15.7090909 193.686848,14.7970909 190.055054,14.7970909 C187.730707,14.7970909 183.711522,15.0850909 180.031304,15.3730909 L179.595489,11.9650909 C182.936739,11.3890909 187.77913,10.8610909 191.071957,10.8610909 Z M183.32413,26.8930909 L183.32413,28.1410909 C183.32413,30.4450909 184.389457,31.4050909 186.762228,31.4050909 C188.89288,31.4050909 192.040435,30.4930909 194.752174,28.0930909 L194.752174,23.9170909 L186.132717,23.9170909 C183.953641,24.0130909 183.32413,25.1170909 183.32413,26.8930909 Z" id="Combined-Shape" fill="#9AA2B1"></path>
                <path d="M226.954076,11.4850909 L226.954076,34.9090909 L223.225435,34.9090909 L222.886467,31.6930909 C219.399946,34.2370909 216.203967,35.5330909 212.814293,35.5330909 C208.601413,35.5330909 206.373913,33.3250909 206.373913,29.0530909 L206.373913,11.4850909 L211.071033,11.4850909 L211.071033,27.7090909 C211.022609,30.5890909 211.942663,31.5490909 214.460707,31.5490909 C216.833478,31.5490909 219.012554,30.4450909 222.30538,28.4290909 L222.30538,11.4850909 L226.954076,11.4850909 Z" id="Path" fill="#9AA2B1"></path>
                <path d="M238.963207,1.30909091 L238.914783,28.1410909 C238.914783,30.1090909 239.980109,31.1170909 242.013913,31.1170909 L244.192989,31.1170909 L244.725652,34.7170909 C243.757174,35.1490909 241.432826,35.3410909 240.222228,35.3410909 C236.590435,35.3410909 234.266087,33.1810909 234.266087,29.1970909 L234.266087,1.30909091 L238.963207,1.30909091 Z" id="Path" fill="#9AA2B1"></path>
                <path d="M254.991522,15.0850909 L254.991522,28.1410909 C254.991522,30.3490909 255.814728,31.1170909 258.090652,31.1170909 L261.52875,31.1170909 L262.061413,34.7170909 C260.511848,35.1490909 257.751685,35.3410909 256.492663,35.3410909 C252.473478,35.3410909 250.342826,32.9890909 250.342826,28.7650909 L250.342826,15.0850909 L246.033098,15.0850909 L246.033098,11.7250909 L250.342826,11.4850909 L250.342826,4.62109091 L254.991522,4.62109091 L254.991522,11.4850909 L262.303533,11.4850909 L262.303533,15.0850909 L254.991522,15.0850909 Z" id="Path" fill="#9AA2B1"></path>
                <path d="M275.281141,10.8610909 C278.380272,10.9090909 282.44788,11.1970909 285.353315,11.6770909 L284.965924,15.0370909 C282.012065,14.9410909 278.961359,14.7970909 276.0075,14.7970909 C271.79462,14.7970909 270.487174,14.8450909 270.487174,17.3890909 C270.487174,19.6450909 271.600924,19.8370909 273.828424,20.4610909 L280.510924,22.0930909 C284.336413,23.1010909 286.03125,24.5890909 286.03125,28.6690909 C286.03125,34.4290909 282.835272,35.4370909 275.76538,35.4370909 C274.167391,35.4370909 270.487174,35.3890909 266.371141,34.7650909 L266.710109,31.3090909 C268.889185,31.5010909 271.746196,31.5490909 274.796902,31.5490909 C279.978261,31.5490909 281.479402,31.0690909 281.479402,28.6690909 C281.479402,26.5090909 280.123533,26.2690909 277.896033,25.6930909 L271.31038,24.0610909 C267.388043,23.0530909 265.935326,21.2290909 265.935326,17.3890909 C265.935326,12.0610909 268.695489,10.8130909 275.281141,10.8610909 Z" id="Path" fill="#9AA2B1"></path>
                <path d="M301.817446,1.21309091 C304.965,1.21309091 308.499946,1.40509091 311.88962,2.22109091 L311.599076,5.72509091 C308.790489,5.62909091 305.158696,5.48509091 302.011141,5.48509091 C297.459293,5.48509091 295.716033,5.67709091 295.716033,10.0930909 C295.716033,13.5010909 296.92663,14.4130909 299.735217,15.1330909 L306.369293,16.9570909 C311.550652,18.3490909 313.148641,21.4210909 313.148641,26.3650909 C313.148641,33.9970909 309.807391,35.4850909 301.769022,35.4850909 C299.63837,35.4850909 295.909728,35.3890909 291.261033,34.5250909 L291.6,30.9730909 C297.652989,31.1650909 299.347826,31.2130909 301.86587,31.2130909 C306.756685,31.1650909 308.209402,30.4450909 308.209402,26.3170909 C308.209402,22.7170909 306.95038,21.9490909 304.238641,21.2290909 L297.459293,19.3570909 C292.568478,18.0130909 290.825217,14.9890909 290.825217,9.94909091 C290.825217,2.26909091 294.263315,1.21309091 301.817446,1.21309091 Z" id="Path" fill="#6B6D7B"></path>
                <path d="M325.351467,15.0850909 L325.351467,28.1410909 C325.351467,30.3490909 326.174674,31.1170909 328.450598,31.1170909 L331.888696,31.1170909 L332.421359,34.7170909 C330.871793,35.1490909 328.11163,35.3410909 326.852609,35.3410909 C322.833424,35.3410909 320.702772,32.9890909 320.702772,28.7650909 L320.702772,15.0850909 L316.393043,15.0850909 L316.393043,11.7250909 L320.702772,11.4850909 L320.702772,4.62109091 L325.351467,4.62109091 L325.351467,11.4850909 L332.663478,11.4850909 L332.663478,15.0850909 L325.351467,15.0850909 Z" id="Path" fill="#9AA2B1"></path>
                <path d="M347.771739,10.8610909 C356.003804,10.8610909 359.054511,14.2690909 359.054511,23.2450909 C359.054511,32.1730909 356.003804,35.5330909 347.771739,35.5330909 C339.539674,35.5330909 336.488967,32.1730909 336.488967,23.2450909 C336.488967,14.2690909 339.539674,10.8610909 347.771739,10.8610909 Z M347.771739,14.7970909 C342.880924,14.7970909 341.379783,16.6690909 341.379783,23.2450909 C341.379783,29.7250909 342.880924,31.6450909 347.771739,31.6450909 C352.662554,31.6450909 354.163696,29.7250909 354.163696,23.2450909 C354.163696,16.6690909 352.662554,14.7970909 347.771739,14.7970909 Z" id="Combined-Shape" fill="#9AA2B1"></path>
                <path d="M380.361033,10.8610909 L379.82837,15.2290909 L378.375652,15.2290909 C375.857609,15.2290909 373.533261,16.2370909 369.901467,17.9170909 L369.901467,34.9090909 L365.204348,34.9090909 L365.204348,11.4850909 L368.836141,11.4850909 L369.32038,15.0850909 C372.66163,12.4450909 376.099728,10.8610909 379.247283,10.8610909 L380.361033,10.8610909 Z" id="Path" fill="#9AA2B1"></path>
                <path d="M395.17875,31.5970909 C397.599946,31.5970909 400.892772,31.3090909 403.459239,31.0210909 L403.895054,34.0930909 C401.570707,35.1010909 397.357826,35.4850909 394.549239,35.4850909 C386.317174,35.4850909 383.16962,32.1730909 383.16962,23.1490909 C383.16962,13.8850909 386.462446,10.8610909 394.113424,10.8610909 C401.473859,10.8610909 404.476141,13.5970909 404.476141,18.7330909 C404.476141,22.9570909 402.684457,25.4530909 398.713696,25.4530909 L388.108859,25.4530909 C388.593098,30.5410909 390.626902,31.5970909 395.17875,31.5970909 Z M394.355543,14.7970909 C389.755272,14.7970909 388.205707,16.2850909 388.012011,21.8530909 L397.454674,21.8530909 C399.440054,21.8530909 399.779022,20.1730909 399.779022,18.7330909 C399.730598,15.9010909 398.374728,14.7970909 394.355543,14.7970909 Z" id="Combined-Shape" fill="#9AA2B1"></path>
            </g>
        </g>
    </g>
</svg>